G04 #@! TF.GenerationSoftware,KiCad,Pcbnew,(5.0.0)*
G04 #@! TF.CreationDate,2021-07-17T15:24:55-07:00*
G04 #@! TF.ProjectId,RaspberryPiHat Board,52617370626572727950694861742042,Raspberry Pi Hat *
G04 #@! TF.SameCoordinates,Original*
G04 #@! TF.FileFunction,Copper,L2,Bot,Signal*
G04 #@! TF.FilePolarity,Positive*
%FSLAX46Y46*%
G04 Gerber Fmt 4.6, Leading zero omitted, Abs format (unit mm)*
G04 Created by KiCad (PCBNEW (5.0.0)) date 07/17/21 15:24:55*
%MOMM*%
%LPD*%
G01*
G04 APERTURE LIST*
G04 #@! TA.AperFunction,ComponentPad*
%ADD10R,1.700000X1.700000*%
G04 #@! TD*
G04 #@! TA.AperFunction,ComponentPad*
%ADD11O,1.700000X1.700000*%
G04 #@! TD*
G04 #@! TA.AperFunction,ComponentPad*
%ADD12O,1.524000X1.524000*%
G04 #@! TD*
G04 #@! TA.AperFunction,ViaPad*
%ADD13C,1.000000*%
G04 #@! TD*
G04 #@! TA.AperFunction,Conductor*
%ADD14C,0.254000*%
G04 #@! TD*
G04 APERTURE END LIST*
D10*
G04 #@! TO.P,J1,1*
G04 #@! TO.N,/3V3*
X41275000Y-52933600D03*
D11*
G04 #@! TO.P,J1,2*
G04 #@! TO.N,Net-(J1-Pad2)*
X41275000Y-50393600D03*
G04 #@! TO.P,J1,3*
G04 #@! TO.N,Net-(J1-Pad3)*
X43815000Y-52933600D03*
G04 #@! TO.P,J1,4*
G04 #@! TO.N,Net-(J1-Pad4)*
X43815000Y-50393600D03*
G04 #@! TO.P,J1,5*
G04 #@! TO.N,Net-(J1-Pad5)*
X46355000Y-52933600D03*
G04 #@! TO.P,J1,6*
G04 #@! TO.N,GND*
X46355000Y-50393600D03*
G04 #@! TO.P,J1,7*
G04 #@! TO.N,Net-(J1-Pad7)*
X48895000Y-52933600D03*
G04 #@! TO.P,J1,8*
G04 #@! TO.N,/button_input*
X48895000Y-50393600D03*
G04 #@! TO.P,J1,9*
G04 #@! TO.N,GND*
X51435000Y-52933600D03*
G04 #@! TO.P,J1,10*
G04 #@! TO.N,Net-(J1-Pad10)*
X51435000Y-50393600D03*
G04 #@! TO.P,J1,11*
G04 #@! TO.N,Net-(J1-Pad11)*
X53975000Y-52933600D03*
G04 #@! TO.P,J1,12*
G04 #@! TO.N,Net-(J1-Pad12)*
X53975000Y-50393600D03*
G04 #@! TO.P,J1,13*
G04 #@! TO.N,Net-(J1-Pad13)*
X56515000Y-52933600D03*
G04 #@! TO.P,J1,14*
G04 #@! TO.N,Net-(J1-Pad14)*
X56515000Y-50393600D03*
G04 #@! TO.P,J1,15*
G04 #@! TO.N,Net-(J1-Pad15)*
X59055000Y-52933600D03*
G04 #@! TO.P,J1,16*
G04 #@! TO.N,Net-(J1-Pad16)*
X59055000Y-50393600D03*
G04 #@! TD*
D12*
G04 #@! TO.P,SW1,1*
G04 #@! TO.N,/3V3*
X46736000Y-64643000D03*
X40233600Y-64643000D03*
G04 #@! TO.P,SW1,2*
G04 #@! TO.N,/button_input*
X46736000Y-60121800D03*
X40233600Y-60121800D03*
G04 #@! TD*
D10*
G04 #@! TO.P,U1,1*
G04 #@! TO.N,/3V3*
X58166000Y-63500000D03*
D11*
G04 #@! TO.P,U1,2*
G04 #@! TO.N,Net-(J1-Pad11)*
X55626000Y-63500000D03*
G04 #@! TO.P,U1,3*
G04 #@! TO.N,N/C*
X53086000Y-63500000D03*
G04 #@! TO.P,U1,4*
G04 #@! TO.N,GND*
X50546000Y-63500000D03*
G04 #@! TD*
D13*
G04 #@! TO.N,GND*
X47421800Y-57708800D03*
X56337200Y-57785000D03*
G04 #@! TD*
D14*
G04 #@! TO.N,GND*
G36*
X60695998Y-48778002D02*
X60704001Y-48818234D01*
X60704000Y-65911000D01*
X38229000Y-65911000D01*
X38229000Y-64643000D01*
X39013150Y-64643000D01*
X39106051Y-65110046D01*
X39370612Y-65505988D01*
X39766554Y-65770549D01*
X40115709Y-65840000D01*
X40351491Y-65840000D01*
X40700646Y-65770549D01*
X41096588Y-65505988D01*
X41361149Y-65110046D01*
X41454050Y-64643000D01*
X45515550Y-64643000D01*
X45608451Y-65110046D01*
X45873012Y-65505988D01*
X46268954Y-65770549D01*
X46618109Y-65840000D01*
X46853891Y-65840000D01*
X47203046Y-65770549D01*
X47598988Y-65505988D01*
X47863549Y-65110046D01*
X47956450Y-64643000D01*
X47863549Y-64175954D01*
X47607253Y-63792380D01*
X49192207Y-63792380D01*
X49407147Y-64288198D01*
X49795467Y-64664020D01*
X50253621Y-64853787D01*
X50469000Y-64748879D01*
X50469000Y-63577000D01*
X49296886Y-63577000D01*
X49192207Y-63792380D01*
X47607253Y-63792380D01*
X47598988Y-63780012D01*
X47203046Y-63515451D01*
X46853891Y-63446000D01*
X46618109Y-63446000D01*
X46268954Y-63515451D01*
X45873012Y-63780012D01*
X45608451Y-64175954D01*
X45515550Y-64643000D01*
X41454050Y-64643000D01*
X41361149Y-64175954D01*
X41096588Y-63780012D01*
X40700646Y-63515451D01*
X40351491Y-63446000D01*
X40115709Y-63446000D01*
X39766554Y-63515451D01*
X39370612Y-63780012D01*
X39106051Y-64175954D01*
X39013150Y-64643000D01*
X38229000Y-64643000D01*
X38229000Y-63207620D01*
X49192207Y-63207620D01*
X49296886Y-63423000D01*
X50469000Y-63423000D01*
X50469000Y-62251121D01*
X50623000Y-62251121D01*
X50623000Y-63423000D01*
X50643000Y-63423000D01*
X50643000Y-63577000D01*
X50623000Y-63577000D01*
X50623000Y-64748879D01*
X50838379Y-64853787D01*
X51296533Y-64664020D01*
X51684853Y-64288198D01*
X51854683Y-63896439D01*
X51875557Y-64001382D01*
X52159567Y-64426433D01*
X52584618Y-64710443D01*
X52959442Y-64785000D01*
X53212558Y-64785000D01*
X53587382Y-64710443D01*
X54012433Y-64426433D01*
X54296443Y-64001382D01*
X54356000Y-63701968D01*
X54415557Y-64001382D01*
X54699567Y-64426433D01*
X55124618Y-64710443D01*
X55499442Y-64785000D01*
X55752558Y-64785000D01*
X56127382Y-64710443D01*
X56552433Y-64426433D01*
X56836443Y-64001382D01*
X56872478Y-63820222D01*
X56872478Y-64350000D01*
X56906239Y-64519729D01*
X57002383Y-64663617D01*
X57146271Y-64759761D01*
X57316000Y-64793522D01*
X59016000Y-64793522D01*
X59185729Y-64759761D01*
X59329617Y-64663617D01*
X59425761Y-64519729D01*
X59459522Y-64350000D01*
X59459522Y-62650000D01*
X59425761Y-62480271D01*
X59329617Y-62336383D01*
X59185729Y-62240239D01*
X59016000Y-62206478D01*
X57316000Y-62206478D01*
X57146271Y-62240239D01*
X57002383Y-62336383D01*
X56906239Y-62480271D01*
X56872478Y-62650000D01*
X56872478Y-63179778D01*
X56836443Y-62998618D01*
X56552433Y-62573567D01*
X56127382Y-62289557D01*
X55752558Y-62215000D01*
X55499442Y-62215000D01*
X55124618Y-62289557D01*
X54699567Y-62573567D01*
X54415557Y-62998618D01*
X54356000Y-63298032D01*
X54296443Y-62998618D01*
X54012433Y-62573567D01*
X53587382Y-62289557D01*
X53212558Y-62215000D01*
X52959442Y-62215000D01*
X52584618Y-62289557D01*
X52159567Y-62573567D01*
X51875557Y-62998618D01*
X51854683Y-63103561D01*
X51684853Y-62711802D01*
X51296533Y-62335980D01*
X50838379Y-62146213D01*
X50623000Y-62251121D01*
X50469000Y-62251121D01*
X50253621Y-62146213D01*
X49795467Y-62335980D01*
X49407147Y-62711802D01*
X49192207Y-63207620D01*
X38229000Y-63207620D01*
X38229000Y-60121800D01*
X39013150Y-60121800D01*
X39106051Y-60588846D01*
X39370612Y-60984788D01*
X39766554Y-61249349D01*
X40115709Y-61318800D01*
X40351491Y-61318800D01*
X40700646Y-61249349D01*
X41096588Y-60984788D01*
X41361149Y-60588846D01*
X41454050Y-60121800D01*
X45515550Y-60121800D01*
X45608451Y-60588846D01*
X45873012Y-60984788D01*
X46268954Y-61249349D01*
X46618109Y-61318800D01*
X46853891Y-61318800D01*
X47203046Y-61249349D01*
X47598988Y-60984788D01*
X47863549Y-60588846D01*
X47956450Y-60121800D01*
X47863549Y-59654754D01*
X47598988Y-59258812D01*
X47203046Y-58994251D01*
X46853891Y-58924800D01*
X46618109Y-58924800D01*
X46268954Y-58994251D01*
X45873012Y-59258812D01*
X45608451Y-59654754D01*
X45515550Y-60121800D01*
X41454050Y-60121800D01*
X41361149Y-59654754D01*
X41096588Y-59258812D01*
X40700646Y-58994251D01*
X40351491Y-58924800D01*
X40115709Y-58924800D01*
X39766554Y-58994251D01*
X39370612Y-59258812D01*
X39106051Y-59654754D01*
X39013150Y-60121800D01*
X38229000Y-60121800D01*
X38229000Y-56083772D01*
X38219201Y-56034509D01*
X38219201Y-56034504D01*
X38151530Y-55694298D01*
X38075379Y-55510453D01*
X38075376Y-55510450D01*
X38050849Y-55473742D01*
X38049199Y-55117412D01*
X38039306Y-55068857D01*
X38011586Y-55027783D01*
X37970257Y-55000444D01*
X37930199Y-54991252D01*
X37573450Y-54968739D01*
X37453550Y-54888624D01*
X37453547Y-54888621D01*
X37269702Y-54812470D01*
X37065156Y-54771783D01*
X37054392Y-54764591D01*
X36905628Y-54735000D01*
X33869593Y-54735000D01*
X32928162Y-54675589D01*
X32913746Y-54654014D01*
X32895000Y-54559768D01*
X32895000Y-52385221D01*
X32928117Y-51366857D01*
X33907070Y-51366857D01*
X33912381Y-52043051D01*
X34136437Y-52681067D01*
X34555077Y-53212110D01*
X35123160Y-53578916D01*
X35779431Y-53741935D01*
X36453123Y-53683587D01*
X37071593Y-53410164D01*
X37568153Y-52951149D01*
X37889257Y-52356038D01*
X38000283Y-51689000D01*
X38000029Y-51656654D01*
X37878540Y-50991443D01*
X37548127Y-50401448D01*
X37539365Y-50393600D01*
X39964826Y-50393600D01*
X40064557Y-50894982D01*
X40348567Y-51320033D01*
X40773618Y-51604043D01*
X40954778Y-51640078D01*
X40425000Y-51640078D01*
X40255271Y-51673839D01*
X40111383Y-51769983D01*
X40015239Y-51913871D01*
X39981478Y-52083600D01*
X39981478Y-53783600D01*
X40015239Y-53953329D01*
X40111383Y-54097217D01*
X40255271Y-54193361D01*
X40425000Y-54227122D01*
X42125000Y-54227122D01*
X42294729Y-54193361D01*
X42438617Y-54097217D01*
X42534761Y-53953329D01*
X42568522Y-53783600D01*
X42568522Y-53253822D01*
X42604557Y-53434982D01*
X42888567Y-53860033D01*
X43313618Y-54144043D01*
X43688442Y-54218600D01*
X43941558Y-54218600D01*
X44316382Y-54144043D01*
X44741433Y-53860033D01*
X45025443Y-53434982D01*
X45085000Y-53135568D01*
X45144557Y-53434982D01*
X45428567Y-53860033D01*
X45853618Y-54144043D01*
X46228442Y-54218600D01*
X46481558Y-54218600D01*
X46856382Y-54144043D01*
X47281433Y-53860033D01*
X47565443Y-53434982D01*
X47625000Y-53135568D01*
X47684557Y-53434982D01*
X47968567Y-53860033D01*
X48393618Y-54144043D01*
X48768442Y-54218600D01*
X49021558Y-54218600D01*
X49396382Y-54144043D01*
X49821433Y-53860033D01*
X50105443Y-53434982D01*
X50126317Y-53330039D01*
X50296147Y-53721798D01*
X50684467Y-54097620D01*
X51142621Y-54287387D01*
X51358000Y-54182479D01*
X51358000Y-53010600D01*
X51338000Y-53010600D01*
X51338000Y-52856600D01*
X51358000Y-52856600D01*
X51358000Y-52836600D01*
X51512000Y-52836600D01*
X51512000Y-52856600D01*
X51532000Y-52856600D01*
X51532000Y-53010600D01*
X51512000Y-53010600D01*
X51512000Y-54182479D01*
X51727379Y-54287387D01*
X52185533Y-54097620D01*
X52573853Y-53721798D01*
X52743683Y-53330039D01*
X52764557Y-53434982D01*
X53048567Y-53860033D01*
X53473618Y-54144043D01*
X53848442Y-54218600D01*
X54101558Y-54218600D01*
X54476382Y-54144043D01*
X54901433Y-53860033D01*
X55185443Y-53434982D01*
X55245000Y-53135568D01*
X55304557Y-53434982D01*
X55588567Y-53860033D01*
X56013618Y-54144043D01*
X56388442Y-54218600D01*
X56641558Y-54218600D01*
X57016382Y-54144043D01*
X57441433Y-53860033D01*
X57725443Y-53434982D01*
X57785000Y-53135568D01*
X57844557Y-53434982D01*
X58128567Y-53860033D01*
X58553618Y-54144043D01*
X58928442Y-54218600D01*
X59181558Y-54218600D01*
X59556382Y-54144043D01*
X59981433Y-53860033D01*
X60265443Y-53434982D01*
X60365174Y-52933600D01*
X60265443Y-52432218D01*
X59981433Y-52007167D01*
X59556382Y-51723157D01*
X59256968Y-51663600D01*
X59556382Y-51604043D01*
X59981433Y-51320033D01*
X60265443Y-50894982D01*
X60365174Y-50393600D01*
X60265443Y-49892218D01*
X59981433Y-49467167D01*
X59556382Y-49183157D01*
X59181558Y-49108600D01*
X58928442Y-49108600D01*
X58553618Y-49183157D01*
X58128567Y-49467167D01*
X57844557Y-49892218D01*
X57785000Y-50191632D01*
X57725443Y-49892218D01*
X57441433Y-49467167D01*
X57016382Y-49183157D01*
X56641558Y-49108600D01*
X56388442Y-49108600D01*
X56013618Y-49183157D01*
X55588567Y-49467167D01*
X55304557Y-49892218D01*
X55245000Y-50191632D01*
X55185443Y-49892218D01*
X54901433Y-49467167D01*
X54476382Y-49183157D01*
X54101558Y-49108600D01*
X53848442Y-49108600D01*
X53473618Y-49183157D01*
X53048567Y-49467167D01*
X52764557Y-49892218D01*
X52705000Y-50191632D01*
X52645443Y-49892218D01*
X52361433Y-49467167D01*
X51936382Y-49183157D01*
X51561558Y-49108600D01*
X51308442Y-49108600D01*
X50933618Y-49183157D01*
X50508567Y-49467167D01*
X50224557Y-49892218D01*
X50165000Y-50191632D01*
X50105443Y-49892218D01*
X49821433Y-49467167D01*
X49396382Y-49183157D01*
X49021558Y-49108600D01*
X48768442Y-49108600D01*
X48393618Y-49183157D01*
X47968567Y-49467167D01*
X47684557Y-49892218D01*
X47663683Y-49997161D01*
X47493853Y-49605402D01*
X47105533Y-49229580D01*
X46647379Y-49039813D01*
X46432000Y-49144721D01*
X46432000Y-50316600D01*
X46452000Y-50316600D01*
X46452000Y-50470600D01*
X46432000Y-50470600D01*
X46432000Y-50490600D01*
X46278000Y-50490600D01*
X46278000Y-50470600D01*
X46258000Y-50470600D01*
X46258000Y-50316600D01*
X46278000Y-50316600D01*
X46278000Y-49144721D01*
X46062621Y-49039813D01*
X45604467Y-49229580D01*
X45216147Y-49605402D01*
X45046317Y-49997161D01*
X45025443Y-49892218D01*
X44741433Y-49467167D01*
X44316382Y-49183157D01*
X43941558Y-49108600D01*
X43688442Y-49108600D01*
X43313618Y-49183157D01*
X42888567Y-49467167D01*
X42604557Y-49892218D01*
X42545000Y-50191632D01*
X42485443Y-49892218D01*
X42201433Y-49467167D01*
X41776382Y-49183157D01*
X41401558Y-49108600D01*
X41148442Y-49108600D01*
X40773618Y-49183157D01*
X40348567Y-49467167D01*
X40064557Y-49892218D01*
X39964826Y-50393600D01*
X37539365Y-50393600D01*
X37044419Y-49950290D01*
X36421730Y-49686615D01*
X35747204Y-49638856D01*
X35093575Y-49812163D01*
X34531324Y-50187847D01*
X34121076Y-50725400D01*
X33907070Y-51366857D01*
X32928117Y-51366857D01*
X33012568Y-48770000D01*
X60655767Y-48770000D01*
X60695998Y-48778002D01*
X60695998Y-48778002D01*
G37*
X60695998Y-48778002D02*
X60704001Y-48818234D01*
X60704000Y-65911000D01*
X38229000Y-65911000D01*
X38229000Y-64643000D01*
X39013150Y-64643000D01*
X39106051Y-65110046D01*
X39370612Y-65505988D01*
X39766554Y-65770549D01*
X40115709Y-65840000D01*
X40351491Y-65840000D01*
X40700646Y-65770549D01*
X41096588Y-65505988D01*
X41361149Y-65110046D01*
X41454050Y-64643000D01*
X45515550Y-64643000D01*
X45608451Y-65110046D01*
X45873012Y-65505988D01*
X46268954Y-65770549D01*
X46618109Y-65840000D01*
X46853891Y-65840000D01*
X47203046Y-65770549D01*
X47598988Y-65505988D01*
X47863549Y-65110046D01*
X47956450Y-64643000D01*
X47863549Y-64175954D01*
X47607253Y-63792380D01*
X49192207Y-63792380D01*
X49407147Y-64288198D01*
X49795467Y-64664020D01*
X50253621Y-64853787D01*
X50469000Y-64748879D01*
X50469000Y-63577000D01*
X49296886Y-63577000D01*
X49192207Y-63792380D01*
X47607253Y-63792380D01*
X47598988Y-63780012D01*
X47203046Y-63515451D01*
X46853891Y-63446000D01*
X46618109Y-63446000D01*
X46268954Y-63515451D01*
X45873012Y-63780012D01*
X45608451Y-64175954D01*
X45515550Y-64643000D01*
X41454050Y-64643000D01*
X41361149Y-64175954D01*
X41096588Y-63780012D01*
X40700646Y-63515451D01*
X40351491Y-63446000D01*
X40115709Y-63446000D01*
X39766554Y-63515451D01*
X39370612Y-63780012D01*
X39106051Y-64175954D01*
X39013150Y-64643000D01*
X38229000Y-64643000D01*
X38229000Y-63207620D01*
X49192207Y-63207620D01*
X49296886Y-63423000D01*
X50469000Y-63423000D01*
X50469000Y-62251121D01*
X50623000Y-62251121D01*
X50623000Y-63423000D01*
X50643000Y-63423000D01*
X50643000Y-63577000D01*
X50623000Y-63577000D01*
X50623000Y-64748879D01*
X50838379Y-64853787D01*
X51296533Y-64664020D01*
X51684853Y-64288198D01*
X51854683Y-63896439D01*
X51875557Y-64001382D01*
X52159567Y-64426433D01*
X52584618Y-64710443D01*
X52959442Y-64785000D01*
X53212558Y-64785000D01*
X53587382Y-64710443D01*
X54012433Y-64426433D01*
X54296443Y-64001382D01*
X54356000Y-63701968D01*
X54415557Y-64001382D01*
X54699567Y-64426433D01*
X55124618Y-64710443D01*
X55499442Y-64785000D01*
X55752558Y-64785000D01*
X56127382Y-64710443D01*
X56552433Y-64426433D01*
X56836443Y-64001382D01*
X56872478Y-63820222D01*
X56872478Y-64350000D01*
X56906239Y-64519729D01*
X57002383Y-64663617D01*
X57146271Y-64759761D01*
X57316000Y-64793522D01*
X59016000Y-64793522D01*
X59185729Y-64759761D01*
X59329617Y-64663617D01*
X59425761Y-64519729D01*
X59459522Y-64350000D01*
X59459522Y-62650000D01*
X59425761Y-62480271D01*
X59329617Y-62336383D01*
X59185729Y-62240239D01*
X59016000Y-62206478D01*
X57316000Y-62206478D01*
X57146271Y-62240239D01*
X57002383Y-62336383D01*
X56906239Y-62480271D01*
X56872478Y-62650000D01*
X56872478Y-63179778D01*
X56836443Y-62998618D01*
X56552433Y-62573567D01*
X56127382Y-62289557D01*
X55752558Y-62215000D01*
X55499442Y-62215000D01*
X55124618Y-62289557D01*
X54699567Y-62573567D01*
X54415557Y-62998618D01*
X54356000Y-63298032D01*
X54296443Y-62998618D01*
X54012433Y-62573567D01*
X53587382Y-62289557D01*
X53212558Y-62215000D01*
X52959442Y-62215000D01*
X52584618Y-62289557D01*
X52159567Y-62573567D01*
X51875557Y-62998618D01*
X51854683Y-63103561D01*
X51684853Y-62711802D01*
X51296533Y-62335980D01*
X50838379Y-62146213D01*
X50623000Y-62251121D01*
X50469000Y-62251121D01*
X50253621Y-62146213D01*
X49795467Y-62335980D01*
X49407147Y-62711802D01*
X49192207Y-63207620D01*
X38229000Y-63207620D01*
X38229000Y-60121800D01*
X39013150Y-60121800D01*
X39106051Y-60588846D01*
X39370612Y-60984788D01*
X39766554Y-61249349D01*
X40115709Y-61318800D01*
X40351491Y-61318800D01*
X40700646Y-61249349D01*
X41096588Y-60984788D01*
X41361149Y-60588846D01*
X41454050Y-60121800D01*
X45515550Y-60121800D01*
X45608451Y-60588846D01*
X45873012Y-60984788D01*
X46268954Y-61249349D01*
X46618109Y-61318800D01*
X46853891Y-61318800D01*
X47203046Y-61249349D01*
X47598988Y-60984788D01*
X47863549Y-60588846D01*
X47956450Y-60121800D01*
X47863549Y-59654754D01*
X47598988Y-59258812D01*
X47203046Y-58994251D01*
X46853891Y-58924800D01*
X46618109Y-58924800D01*
X46268954Y-58994251D01*
X45873012Y-59258812D01*
X45608451Y-59654754D01*
X45515550Y-60121800D01*
X41454050Y-60121800D01*
X41361149Y-59654754D01*
X41096588Y-59258812D01*
X40700646Y-58994251D01*
X40351491Y-58924800D01*
X40115709Y-58924800D01*
X39766554Y-58994251D01*
X39370612Y-59258812D01*
X39106051Y-59654754D01*
X39013150Y-60121800D01*
X38229000Y-60121800D01*
X38229000Y-56083772D01*
X38219201Y-56034509D01*
X38219201Y-56034504D01*
X38151530Y-55694298D01*
X38075379Y-55510453D01*
X38075376Y-55510450D01*
X38050849Y-55473742D01*
X38049199Y-55117412D01*
X38039306Y-55068857D01*
X38011586Y-55027783D01*
X37970257Y-55000444D01*
X37930199Y-54991252D01*
X37573450Y-54968739D01*
X37453550Y-54888624D01*
X37453547Y-54888621D01*
X37269702Y-54812470D01*
X37065156Y-54771783D01*
X37054392Y-54764591D01*
X36905628Y-54735000D01*
X33869593Y-54735000D01*
X32928162Y-54675589D01*
X32913746Y-54654014D01*
X32895000Y-54559768D01*
X32895000Y-52385221D01*
X32928117Y-51366857D01*
X33907070Y-51366857D01*
X33912381Y-52043051D01*
X34136437Y-52681067D01*
X34555077Y-53212110D01*
X35123160Y-53578916D01*
X35779431Y-53741935D01*
X36453123Y-53683587D01*
X37071593Y-53410164D01*
X37568153Y-52951149D01*
X37889257Y-52356038D01*
X38000283Y-51689000D01*
X38000029Y-51656654D01*
X37878540Y-50991443D01*
X37548127Y-50401448D01*
X37539365Y-50393600D01*
X39964826Y-50393600D01*
X40064557Y-50894982D01*
X40348567Y-51320033D01*
X40773618Y-51604043D01*
X40954778Y-51640078D01*
X40425000Y-51640078D01*
X40255271Y-51673839D01*
X40111383Y-51769983D01*
X40015239Y-51913871D01*
X39981478Y-52083600D01*
X39981478Y-53783600D01*
X40015239Y-53953329D01*
X40111383Y-54097217D01*
X40255271Y-54193361D01*
X40425000Y-54227122D01*
X42125000Y-54227122D01*
X42294729Y-54193361D01*
X42438617Y-54097217D01*
X42534761Y-53953329D01*
X42568522Y-53783600D01*
X42568522Y-53253822D01*
X42604557Y-53434982D01*
X42888567Y-53860033D01*
X43313618Y-54144043D01*
X43688442Y-54218600D01*
X43941558Y-54218600D01*
X44316382Y-54144043D01*
X44741433Y-53860033D01*
X45025443Y-53434982D01*
X45085000Y-53135568D01*
X45144557Y-53434982D01*
X45428567Y-53860033D01*
X45853618Y-54144043D01*
X46228442Y-54218600D01*
X46481558Y-54218600D01*
X46856382Y-54144043D01*
X47281433Y-53860033D01*
X47565443Y-53434982D01*
X47625000Y-53135568D01*
X47684557Y-53434982D01*
X47968567Y-53860033D01*
X48393618Y-54144043D01*
X48768442Y-54218600D01*
X49021558Y-54218600D01*
X49396382Y-54144043D01*
X49821433Y-53860033D01*
X50105443Y-53434982D01*
X50126317Y-53330039D01*
X50296147Y-53721798D01*
X50684467Y-54097620D01*
X51142621Y-54287387D01*
X51358000Y-54182479D01*
X51358000Y-53010600D01*
X51338000Y-53010600D01*
X51338000Y-52856600D01*
X51358000Y-52856600D01*
X51358000Y-52836600D01*
X51512000Y-52836600D01*
X51512000Y-52856600D01*
X51532000Y-52856600D01*
X51532000Y-53010600D01*
X51512000Y-53010600D01*
X51512000Y-54182479D01*
X51727379Y-54287387D01*
X52185533Y-54097620D01*
X52573853Y-53721798D01*
X52743683Y-53330039D01*
X52764557Y-53434982D01*
X53048567Y-53860033D01*
X53473618Y-54144043D01*
X53848442Y-54218600D01*
X54101558Y-54218600D01*
X54476382Y-54144043D01*
X54901433Y-53860033D01*
X55185443Y-53434982D01*
X55245000Y-53135568D01*
X55304557Y-53434982D01*
X55588567Y-53860033D01*
X56013618Y-54144043D01*
X56388442Y-54218600D01*
X56641558Y-54218600D01*
X57016382Y-54144043D01*
X57441433Y-53860033D01*
X57725443Y-53434982D01*
X57785000Y-53135568D01*
X57844557Y-53434982D01*
X58128567Y-53860033D01*
X58553618Y-54144043D01*
X58928442Y-54218600D01*
X59181558Y-54218600D01*
X59556382Y-54144043D01*
X59981433Y-53860033D01*
X60265443Y-53434982D01*
X60365174Y-52933600D01*
X60265443Y-52432218D01*
X59981433Y-52007167D01*
X59556382Y-51723157D01*
X59256968Y-51663600D01*
X59556382Y-51604043D01*
X59981433Y-51320033D01*
X60265443Y-50894982D01*
X60365174Y-50393600D01*
X60265443Y-49892218D01*
X59981433Y-49467167D01*
X59556382Y-49183157D01*
X59181558Y-49108600D01*
X58928442Y-49108600D01*
X58553618Y-49183157D01*
X58128567Y-49467167D01*
X57844557Y-49892218D01*
X57785000Y-50191632D01*
X57725443Y-49892218D01*
X57441433Y-49467167D01*
X57016382Y-49183157D01*
X56641558Y-49108600D01*
X56388442Y-49108600D01*
X56013618Y-49183157D01*
X55588567Y-49467167D01*
X55304557Y-49892218D01*
X55245000Y-50191632D01*
X55185443Y-49892218D01*
X54901433Y-49467167D01*
X54476382Y-49183157D01*
X54101558Y-49108600D01*
X53848442Y-49108600D01*
X53473618Y-49183157D01*
X53048567Y-49467167D01*
X52764557Y-49892218D01*
X52705000Y-50191632D01*
X52645443Y-49892218D01*
X52361433Y-49467167D01*
X51936382Y-49183157D01*
X51561558Y-49108600D01*
X51308442Y-49108600D01*
X50933618Y-49183157D01*
X50508567Y-49467167D01*
X50224557Y-49892218D01*
X50165000Y-50191632D01*
X50105443Y-49892218D01*
X49821433Y-49467167D01*
X49396382Y-49183157D01*
X49021558Y-49108600D01*
X48768442Y-49108600D01*
X48393618Y-49183157D01*
X47968567Y-49467167D01*
X47684557Y-49892218D01*
X47663683Y-49997161D01*
X47493853Y-49605402D01*
X47105533Y-49229580D01*
X46647379Y-49039813D01*
X46432000Y-49144721D01*
X46432000Y-50316600D01*
X46452000Y-50316600D01*
X46452000Y-50470600D01*
X46432000Y-50470600D01*
X46432000Y-50490600D01*
X46278000Y-50490600D01*
X46278000Y-50470600D01*
X46258000Y-50470600D01*
X46258000Y-50316600D01*
X46278000Y-50316600D01*
X46278000Y-49144721D01*
X46062621Y-49039813D01*
X45604467Y-49229580D01*
X45216147Y-49605402D01*
X45046317Y-49997161D01*
X45025443Y-49892218D01*
X44741433Y-49467167D01*
X44316382Y-49183157D01*
X43941558Y-49108600D01*
X43688442Y-49108600D01*
X43313618Y-49183157D01*
X42888567Y-49467167D01*
X42604557Y-49892218D01*
X42545000Y-50191632D01*
X42485443Y-49892218D01*
X42201433Y-49467167D01*
X41776382Y-49183157D01*
X41401558Y-49108600D01*
X41148442Y-49108600D01*
X40773618Y-49183157D01*
X40348567Y-49467167D01*
X40064557Y-49892218D01*
X39964826Y-50393600D01*
X37539365Y-50393600D01*
X37044419Y-49950290D01*
X36421730Y-49686615D01*
X35747204Y-49638856D01*
X35093575Y-49812163D01*
X34531324Y-50187847D01*
X34121076Y-50725400D01*
X33907070Y-51366857D01*
X32928117Y-51366857D01*
X33012568Y-48770000D01*
X60655767Y-48770000D01*
X60695998Y-48778002D01*
G04 #@! TD*
M02*
