M48
INCH,TZ
T1C0.0315
T2C0.0394
T3C0.0400
%
G90
G05
T1
X18670Y-22720
X22180Y-22750
T2
X19900Y-25000
X20900Y-25000
X21900Y-25000
X22900Y-25000
X16250Y-19840
X16250Y-20840
X17250Y-19840
X17250Y-20840
X18250Y-19840
X18250Y-20840
X19250Y-19840
X19250Y-20840
X20250Y-19840
X20250Y-20840
X21250Y-19840
X21250Y-20840
X22250Y-19840
X22250Y-20840
X23250Y-19840
X23250Y-20840
T3
X15840Y-23670
X15840Y-25450
X18400Y-23670
X18400Y-25450
T0
M30
