G04 #@! TF.GenerationSoftware,KiCad,Pcbnew,(5.0.0)*
G04 #@! TF.CreationDate,2021-07-17T15:24:55-07:00*
G04 #@! TF.ProjectId,RaspberryPiHat Board,52617370626572727950694861742042,Raspberry Pi Hat *
G04 #@! TF.SameCoordinates,Original*
G04 #@! TF.FileFunction,Legend,Bot*
G04 #@! TF.FilePolarity,Positive*
%FSLAX46Y46*%
G04 Gerber Fmt 4.6, Leading zero omitted, Abs format (unit mm)*
G04 Created by KiCad (PCBNEW (5.0.0)) date 07/17/21 15:24:55*
%MOMM*%
%LPD*%
G01*
G04 APERTURE LIST*
%ADD10C,0.150000*%
%ADD11C,0.010000*%
G04 APERTURE END LIST*
D10*
X59373057Y-61942628D02*
X59573057Y-61656914D01*
X59715914Y-61942628D02*
X59715914Y-61342628D01*
X59487342Y-61342628D01*
X59430200Y-61371200D01*
X59401628Y-61399771D01*
X59373057Y-61456914D01*
X59373057Y-61542628D01*
X59401628Y-61599771D01*
X59430200Y-61628342D01*
X59487342Y-61656914D01*
X59715914Y-61656914D01*
X58858771Y-61942628D02*
X58858771Y-61628342D01*
X58887342Y-61571200D01*
X58944485Y-61542628D01*
X59058771Y-61542628D01*
X59115914Y-61571200D01*
X58858771Y-61914057D02*
X58915914Y-61942628D01*
X59058771Y-61942628D01*
X59115914Y-61914057D01*
X59144485Y-61856914D01*
X59144485Y-61799771D01*
X59115914Y-61742628D01*
X59058771Y-61714057D01*
X58915914Y-61714057D01*
X58858771Y-61685485D01*
X58601628Y-61914057D02*
X58544485Y-61942628D01*
X58430200Y-61942628D01*
X58373057Y-61914057D01*
X58344485Y-61856914D01*
X58344485Y-61828342D01*
X58373057Y-61771200D01*
X58430200Y-61742628D01*
X58515914Y-61742628D01*
X58573057Y-61714057D01*
X58601628Y-61656914D01*
X58601628Y-61628342D01*
X58573057Y-61571200D01*
X58515914Y-61542628D01*
X58430200Y-61542628D01*
X58373057Y-61571200D01*
X58087342Y-61542628D02*
X58087342Y-62142628D01*
X58087342Y-61571200D02*
X58030200Y-61542628D01*
X57915914Y-61542628D01*
X57858771Y-61571200D01*
X57830200Y-61599771D01*
X57801628Y-61656914D01*
X57801628Y-61828342D01*
X57830200Y-61885485D01*
X57858771Y-61914057D01*
X57915914Y-61942628D01*
X58030200Y-61942628D01*
X58087342Y-61914057D01*
X57544485Y-61942628D02*
X57544485Y-61342628D01*
X57544485Y-61571200D02*
X57487342Y-61542628D01*
X57373057Y-61542628D01*
X57315914Y-61571200D01*
X57287342Y-61599771D01*
X57258771Y-61656914D01*
X57258771Y-61828342D01*
X57287342Y-61885485D01*
X57315914Y-61914057D01*
X57373057Y-61942628D01*
X57487342Y-61942628D01*
X57544485Y-61914057D01*
X56773057Y-61914057D02*
X56830199Y-61942628D01*
X56944485Y-61942628D01*
X57001628Y-61914057D01*
X57030199Y-61856914D01*
X57030199Y-61628342D01*
X57001628Y-61571200D01*
X56944485Y-61542628D01*
X56830199Y-61542628D01*
X56773057Y-61571200D01*
X56744485Y-61628342D01*
X56744485Y-61685485D01*
X57030199Y-61742628D01*
X56487342Y-61942628D02*
X56487342Y-61542628D01*
X56487342Y-61656914D02*
X56458771Y-61599771D01*
X56430199Y-61571200D01*
X56373057Y-61542628D01*
X56315914Y-61542628D01*
X56115914Y-61942628D02*
X56115914Y-61542628D01*
X56115914Y-61656914D02*
X56087342Y-61599771D01*
X56058771Y-61571200D01*
X56001628Y-61542628D01*
X55944485Y-61542628D01*
X55801628Y-61542628D02*
X55658771Y-61942628D01*
X55515914Y-61542628D02*
X55658771Y-61942628D01*
X55715914Y-62085485D01*
X55744485Y-62114057D01*
X55801628Y-62142628D01*
X55287342Y-61942628D02*
X55287342Y-61342628D01*
X55058771Y-61342628D01*
X55001628Y-61371200D01*
X54973057Y-61399771D01*
X54944485Y-61456914D01*
X54944485Y-61542628D01*
X54973057Y-61599771D01*
X55001628Y-61628342D01*
X55058771Y-61656914D01*
X55287342Y-61656914D01*
X54687342Y-61942628D02*
X54687342Y-61542628D01*
X54687342Y-61342628D02*
X54715914Y-61371200D01*
X54687342Y-61399771D01*
X54658771Y-61371200D01*
X54687342Y-61342628D01*
X54687342Y-61399771D01*
X53944485Y-61942628D02*
X53944485Y-61342628D01*
X53944485Y-61628342D02*
X53601628Y-61628342D01*
X53601628Y-61942628D02*
X53601628Y-61342628D01*
X53058771Y-61942628D02*
X53058771Y-61628342D01*
X53087342Y-61571200D01*
X53144485Y-61542628D01*
X53258771Y-61542628D01*
X53315914Y-61571200D01*
X53058771Y-61914057D02*
X53115914Y-61942628D01*
X53258771Y-61942628D01*
X53315914Y-61914057D01*
X53344485Y-61856914D01*
X53344485Y-61799771D01*
X53315914Y-61742628D01*
X53258771Y-61714057D01*
X53115914Y-61714057D01*
X53058771Y-61685485D01*
X52858771Y-61542628D02*
X52630200Y-61542628D01*
X52773057Y-61342628D02*
X52773057Y-61856914D01*
X52744485Y-61914057D01*
X52687342Y-61942628D01*
X52630200Y-61942628D01*
X51973057Y-61942628D02*
X51973057Y-61342628D01*
X51830200Y-61342628D01*
X51744485Y-61371200D01*
X51687342Y-61428342D01*
X51658771Y-61485485D01*
X51630200Y-61599771D01*
X51630200Y-61685485D01*
X51658771Y-61799771D01*
X51687342Y-61856914D01*
X51744485Y-61914057D01*
X51830200Y-61942628D01*
X51973057Y-61942628D01*
X51144485Y-61914057D02*
X51201628Y-61942628D01*
X51315914Y-61942628D01*
X51373057Y-61914057D01*
X51401628Y-61856914D01*
X51401628Y-61628342D01*
X51373057Y-61571200D01*
X51315914Y-61542628D01*
X51201628Y-61542628D01*
X51144485Y-61571200D01*
X51115914Y-61628342D01*
X51115914Y-61685485D01*
X51401628Y-61742628D01*
X50887342Y-61914057D02*
X50830200Y-61942628D01*
X50715914Y-61942628D01*
X50658771Y-61914057D01*
X50630199Y-61856914D01*
X50630199Y-61828342D01*
X50658771Y-61771200D01*
X50715914Y-61742628D01*
X50801628Y-61742628D01*
X50858771Y-61714057D01*
X50887342Y-61656914D01*
X50887342Y-61628342D01*
X50858771Y-61571200D01*
X50801628Y-61542628D01*
X50715914Y-61542628D01*
X50658771Y-61571200D01*
X50373057Y-61942628D02*
X50373057Y-61542628D01*
X50373057Y-61342628D02*
X50401628Y-61371200D01*
X50373057Y-61399771D01*
X50344485Y-61371200D01*
X50373057Y-61342628D01*
X50373057Y-61399771D01*
X49830200Y-61542628D02*
X49830200Y-62028342D01*
X49858771Y-62085485D01*
X49887342Y-62114057D01*
X49944485Y-62142628D01*
X50030200Y-62142628D01*
X50087342Y-62114057D01*
X49830200Y-61914057D02*
X49887342Y-61942628D01*
X50001628Y-61942628D01*
X50058771Y-61914057D01*
X50087342Y-61885485D01*
X50115914Y-61828342D01*
X50115914Y-61656914D01*
X50087342Y-61599771D01*
X50058771Y-61571200D01*
X50001628Y-61542628D01*
X49887342Y-61542628D01*
X49830200Y-61571200D01*
X49544485Y-61542628D02*
X49544485Y-61942628D01*
X49544485Y-61599771D02*
X49515914Y-61571200D01*
X49458771Y-61542628D01*
X49373057Y-61542628D01*
X49315914Y-61571200D01*
X49287342Y-61628342D01*
X49287342Y-61942628D01*
X48773057Y-61914057D02*
X48830200Y-61942628D01*
X48944485Y-61942628D01*
X49001628Y-61914057D01*
X49030200Y-61856914D01*
X49030200Y-61628342D01*
X49001628Y-61571200D01*
X48944485Y-61542628D01*
X48830200Y-61542628D01*
X48773057Y-61571200D01*
X48744485Y-61628342D01*
X48744485Y-61685485D01*
X49030200Y-61742628D01*
X48230200Y-61942628D02*
X48230200Y-61342628D01*
X48230200Y-61914057D02*
X48287342Y-61942628D01*
X48401628Y-61942628D01*
X48458771Y-61914057D01*
X48487342Y-61885485D01*
X48515914Y-61828342D01*
X48515914Y-61656914D01*
X48487342Y-61599771D01*
X48458771Y-61571200D01*
X48401628Y-61542628D01*
X48287342Y-61542628D01*
X48230200Y-61571200D01*
X47487342Y-61942628D02*
X47487342Y-61342628D01*
X47487342Y-61571200D02*
X47430200Y-61542628D01*
X47315914Y-61542628D01*
X47258771Y-61571200D01*
X47230200Y-61599771D01*
X47201628Y-61656914D01*
X47201628Y-61828342D01*
X47230200Y-61885485D01*
X47258771Y-61914057D01*
X47315914Y-61942628D01*
X47430200Y-61942628D01*
X47487342Y-61914057D01*
X47001628Y-61542628D02*
X46858771Y-61942628D01*
X46715914Y-61542628D02*
X46858771Y-61942628D01*
X46915914Y-62085485D01*
X46944485Y-62114057D01*
X47001628Y-62142628D01*
X46030200Y-61942628D02*
X46030200Y-61342628D01*
X45830200Y-61771200D01*
X45630200Y-61342628D01*
X45630200Y-61942628D01*
X45087342Y-61942628D02*
X45087342Y-61628342D01*
X45115914Y-61571200D01*
X45173057Y-61542628D01*
X45287342Y-61542628D01*
X45344485Y-61571200D01*
X45087342Y-61914057D02*
X45144485Y-61942628D01*
X45287342Y-61942628D01*
X45344485Y-61914057D01*
X45373057Y-61856914D01*
X45373057Y-61799771D01*
X45344485Y-61742628D01*
X45287342Y-61714057D01*
X45144485Y-61714057D01*
X45087342Y-61685485D01*
X44801628Y-61942628D02*
X44801628Y-61542628D01*
X44801628Y-61656914D02*
X44773057Y-61599771D01*
X44744485Y-61571200D01*
X44687342Y-61542628D01*
X44630200Y-61542628D01*
X44487342Y-61542628D02*
X44373057Y-61942628D01*
X44258771Y-61656914D01*
X44144485Y-61942628D01*
X44030200Y-61542628D01*
X43544485Y-61942628D02*
X43544485Y-61628342D01*
X43573057Y-61571200D01*
X43630200Y-61542628D01*
X43744485Y-61542628D01*
X43801628Y-61571200D01*
X43544485Y-61914057D02*
X43601628Y-61942628D01*
X43744485Y-61942628D01*
X43801628Y-61914057D01*
X43830200Y-61856914D01*
X43830200Y-61799771D01*
X43801628Y-61742628D01*
X43744485Y-61714057D01*
X43601628Y-61714057D01*
X43544485Y-61685485D01*
X43258771Y-61542628D02*
X43258771Y-61942628D01*
X43258771Y-61599771D02*
X43230200Y-61571200D01*
X43173057Y-61542628D01*
X43087342Y-61542628D01*
X43030200Y-61571200D01*
X43001628Y-61628342D01*
X43001628Y-61942628D01*
D11*
G04 #@! TO.C,REF\002A\002A\002A*
G36*
X54775056Y-58739718D02*
X54719599Y-58767368D01*
X54670652Y-58818280D01*
X54657171Y-58837138D01*
X54642486Y-58861815D01*
X54632958Y-58888616D01*
X54627507Y-58924387D01*
X54625053Y-58975969D01*
X54624514Y-59044067D01*
X54626948Y-59137388D01*
X54635406Y-59207457D01*
X54651626Y-59259731D01*
X54677346Y-59299669D01*
X54714303Y-59332729D01*
X54717018Y-59334686D01*
X54753440Y-59354708D01*
X54797298Y-59364615D01*
X54853076Y-59367057D01*
X54943752Y-59367057D01*
X54943790Y-59455083D01*
X54944634Y-59504108D01*
X54949776Y-59532865D01*
X54963213Y-59550111D01*
X54988942Y-59564608D01*
X54995121Y-59567569D01*
X55024036Y-59581448D01*
X55046424Y-59590214D01*
X55063071Y-59590971D01*
X55074764Y-59580823D01*
X55082290Y-59556873D01*
X55086434Y-59516226D01*
X55087985Y-59455986D01*
X55087729Y-59373255D01*
X55086451Y-59265139D01*
X55086052Y-59232800D01*
X55084615Y-59121324D01*
X55083328Y-59048403D01*
X54943829Y-59048403D01*
X54943045Y-59110299D01*
X54939560Y-59150797D01*
X54931676Y-59177508D01*
X54917695Y-59198044D01*
X54908203Y-59208060D01*
X54869396Y-59237367D01*
X54835037Y-59239752D01*
X54799584Y-59215550D01*
X54798686Y-59214657D01*
X54784261Y-59195953D01*
X54775487Y-59170532D01*
X54771061Y-59131384D01*
X54769682Y-59071497D01*
X54769657Y-59058230D01*
X54772988Y-58975701D01*
X54783831Y-58918491D01*
X54803460Y-58883566D01*
X54833150Y-58867894D01*
X54850309Y-58866314D01*
X54891034Y-58873726D01*
X54918968Y-58898130D01*
X54935783Y-58942780D01*
X54943150Y-59010930D01*
X54943829Y-59048403D01*
X55083328Y-59048403D01*
X55083092Y-59035045D01*
X55081123Y-58970133D01*
X55078350Y-58922758D01*
X55074412Y-58889090D01*
X55068951Y-58865298D01*
X55061608Y-58847553D01*
X55052023Y-58832024D01*
X55047913Y-58826181D01*
X54993395Y-58770985D01*
X54924464Y-58739690D01*
X54844728Y-58730965D01*
X54775056Y-58739718D01*
X54775056Y-58739718D01*
G37*
X54775056Y-58739718D02*
X54719599Y-58767368D01*
X54670652Y-58818280D01*
X54657171Y-58837138D01*
X54642486Y-58861815D01*
X54632958Y-58888616D01*
X54627507Y-58924387D01*
X54625053Y-58975969D01*
X54624514Y-59044067D01*
X54626948Y-59137388D01*
X54635406Y-59207457D01*
X54651626Y-59259731D01*
X54677346Y-59299669D01*
X54714303Y-59332729D01*
X54717018Y-59334686D01*
X54753440Y-59354708D01*
X54797298Y-59364615D01*
X54853076Y-59367057D01*
X54943752Y-59367057D01*
X54943790Y-59455083D01*
X54944634Y-59504108D01*
X54949776Y-59532865D01*
X54963213Y-59550111D01*
X54988942Y-59564608D01*
X54995121Y-59567569D01*
X55024036Y-59581448D01*
X55046424Y-59590214D01*
X55063071Y-59590971D01*
X55074764Y-59580823D01*
X55082290Y-59556873D01*
X55086434Y-59516226D01*
X55087985Y-59455986D01*
X55087729Y-59373255D01*
X55086451Y-59265139D01*
X55086052Y-59232800D01*
X55084615Y-59121324D01*
X55083328Y-59048403D01*
X54943829Y-59048403D01*
X54943045Y-59110299D01*
X54939560Y-59150797D01*
X54931676Y-59177508D01*
X54917695Y-59198044D01*
X54908203Y-59208060D01*
X54869396Y-59237367D01*
X54835037Y-59239752D01*
X54799584Y-59215550D01*
X54798686Y-59214657D01*
X54784261Y-59195953D01*
X54775487Y-59170532D01*
X54771061Y-59131384D01*
X54769682Y-59071497D01*
X54769657Y-59058230D01*
X54772988Y-58975701D01*
X54783831Y-58918491D01*
X54803460Y-58883566D01*
X54833150Y-58867894D01*
X54850309Y-58866314D01*
X54891034Y-58873726D01*
X54918968Y-58898130D01*
X54935783Y-58942780D01*
X54943150Y-59010930D01*
X54943829Y-59048403D01*
X55083328Y-59048403D01*
X55083092Y-59035045D01*
X55081123Y-58970133D01*
X55078350Y-58922758D01*
X55074412Y-58889090D01*
X55068951Y-58865298D01*
X55061608Y-58847553D01*
X55052023Y-58832024D01*
X55047913Y-58826181D01*
X54993395Y-58770985D01*
X54924464Y-58739690D01*
X54844728Y-58730965D01*
X54775056Y-58739718D01*
G36*
X53658707Y-58747580D02*
X53612128Y-58774523D01*
X53579743Y-58801266D01*
X53556058Y-58829284D01*
X53539741Y-58863548D01*
X53529461Y-58909027D01*
X53523886Y-58970692D01*
X53521684Y-59053511D01*
X53521429Y-59113046D01*
X53521429Y-59332191D01*
X53583114Y-59359844D01*
X53644800Y-59387497D01*
X53652057Y-59147470D01*
X53655056Y-59057828D01*
X53658202Y-58992762D01*
X53662099Y-58947826D01*
X53667353Y-58918570D01*
X53674569Y-58900548D01*
X53684350Y-58889311D01*
X53687488Y-58886879D01*
X53735039Y-58867883D01*
X53783103Y-58875400D01*
X53811714Y-58895343D01*
X53823353Y-58909475D01*
X53831409Y-58928020D01*
X53836529Y-58956134D01*
X53839359Y-58998973D01*
X53840544Y-59061695D01*
X53840743Y-59127061D01*
X53840782Y-59209068D01*
X53842186Y-59267116D01*
X53846886Y-59306265D01*
X53856813Y-59331580D01*
X53873897Y-59348123D01*
X53900068Y-59360956D01*
X53935025Y-59374291D01*
X53973204Y-59388807D01*
X53968659Y-59131189D01*
X53966829Y-59038319D01*
X53964688Y-58969689D01*
X53961619Y-58920511D01*
X53957006Y-58885998D01*
X53950232Y-58861362D01*
X53940681Y-58841816D01*
X53929166Y-58824570D01*
X53873610Y-58769480D01*
X53805820Y-58737622D01*
X53732087Y-58729991D01*
X53658707Y-58747580D01*
X53658707Y-58747580D01*
G37*
X53658707Y-58747580D02*
X53612128Y-58774523D01*
X53579743Y-58801266D01*
X53556058Y-58829284D01*
X53539741Y-58863548D01*
X53529461Y-58909027D01*
X53523886Y-58970692D01*
X53521684Y-59053511D01*
X53521429Y-59113046D01*
X53521429Y-59332191D01*
X53583114Y-59359844D01*
X53644800Y-59387497D01*
X53652057Y-59147470D01*
X53655056Y-59057828D01*
X53658202Y-58992762D01*
X53662099Y-58947826D01*
X53667353Y-58918570D01*
X53674569Y-58900548D01*
X53684350Y-58889311D01*
X53687488Y-58886879D01*
X53735039Y-58867883D01*
X53783103Y-58875400D01*
X53811714Y-58895343D01*
X53823353Y-58909475D01*
X53831409Y-58928020D01*
X53836529Y-58956134D01*
X53839359Y-58998973D01*
X53840544Y-59061695D01*
X53840743Y-59127061D01*
X53840782Y-59209068D01*
X53842186Y-59267116D01*
X53846886Y-59306265D01*
X53856813Y-59331580D01*
X53873897Y-59348123D01*
X53900068Y-59360956D01*
X53935025Y-59374291D01*
X53973204Y-59388807D01*
X53968659Y-59131189D01*
X53966829Y-59038319D01*
X53964688Y-58969689D01*
X53961619Y-58920511D01*
X53957006Y-58885998D01*
X53950232Y-58861362D01*
X53940681Y-58841816D01*
X53929166Y-58824570D01*
X53873610Y-58769480D01*
X53805820Y-58737622D01*
X53732087Y-58729991D01*
X53658707Y-58747580D01*
G36*
X55333685Y-58741762D02*
X55265655Y-58777533D01*
X55215449Y-58835101D01*
X55197615Y-58872112D01*
X55183737Y-58927682D01*
X55176633Y-58997896D01*
X55175960Y-59074527D01*
X55181373Y-59149352D01*
X55192530Y-59214142D01*
X55209086Y-59260673D01*
X55214174Y-59268687D01*
X55274445Y-59328507D01*
X55346031Y-59364335D01*
X55423708Y-59374820D01*
X55502252Y-59358610D01*
X55524111Y-59348892D01*
X55566678Y-59318943D01*
X55604037Y-59279233D01*
X55607568Y-59274197D01*
X55621919Y-59249924D01*
X55631406Y-59223978D01*
X55637010Y-59189822D01*
X55639714Y-59140919D01*
X55640501Y-59070735D01*
X55640514Y-59055000D01*
X55640478Y-59049992D01*
X55495371Y-59049992D01*
X55494527Y-59116230D01*
X55491204Y-59160186D01*
X55484217Y-59188579D01*
X55472384Y-59208125D01*
X55466343Y-59214657D01*
X55431614Y-59239480D01*
X55397897Y-59238348D01*
X55363805Y-59216816D01*
X55343471Y-59193829D01*
X55331429Y-59160278D01*
X55324666Y-59107369D01*
X55324202Y-59101199D01*
X55323048Y-59005313D01*
X55335112Y-58934099D01*
X55360230Y-58887994D01*
X55398240Y-58867435D01*
X55411808Y-58866314D01*
X55447436Y-58871952D01*
X55471806Y-58891486D01*
X55486707Y-58928842D01*
X55493925Y-58987950D01*
X55495371Y-59049992D01*
X55640478Y-59049992D01*
X55639974Y-58980213D01*
X55637704Y-58927959D01*
X55632732Y-58891749D01*
X55624087Y-58865099D01*
X55610795Y-58841522D01*
X55607857Y-58837138D01*
X55558487Y-58778049D01*
X55504691Y-58743747D01*
X55439198Y-58730131D01*
X55416958Y-58729465D01*
X55333685Y-58741762D01*
X55333685Y-58741762D01*
G37*
X55333685Y-58741762D02*
X55265655Y-58777533D01*
X55215449Y-58835101D01*
X55197615Y-58872112D01*
X55183737Y-58927682D01*
X55176633Y-58997896D01*
X55175960Y-59074527D01*
X55181373Y-59149352D01*
X55192530Y-59214142D01*
X55209086Y-59260673D01*
X55214174Y-59268687D01*
X55274445Y-59328507D01*
X55346031Y-59364335D01*
X55423708Y-59374820D01*
X55502252Y-59358610D01*
X55524111Y-59348892D01*
X55566678Y-59318943D01*
X55604037Y-59279233D01*
X55607568Y-59274197D01*
X55621919Y-59249924D01*
X55631406Y-59223978D01*
X55637010Y-59189822D01*
X55639714Y-59140919D01*
X55640501Y-59070735D01*
X55640514Y-59055000D01*
X55640478Y-59049992D01*
X55495371Y-59049992D01*
X55494527Y-59116230D01*
X55491204Y-59160186D01*
X55484217Y-59188579D01*
X55472384Y-59208125D01*
X55466343Y-59214657D01*
X55431614Y-59239480D01*
X55397897Y-59238348D01*
X55363805Y-59216816D01*
X55343471Y-59193829D01*
X55331429Y-59160278D01*
X55324666Y-59107369D01*
X55324202Y-59101199D01*
X55323048Y-59005313D01*
X55335112Y-58934099D01*
X55360230Y-58887994D01*
X55398240Y-58867435D01*
X55411808Y-58866314D01*
X55447436Y-58871952D01*
X55471806Y-58891486D01*
X55486707Y-58928842D01*
X55493925Y-58987950D01*
X55495371Y-59049992D01*
X55640478Y-59049992D01*
X55639974Y-58980213D01*
X55637704Y-58927959D01*
X55632732Y-58891749D01*
X55624087Y-58865099D01*
X55610795Y-58841522D01*
X55607857Y-58837138D01*
X55558487Y-58778049D01*
X55504691Y-58743747D01*
X55439198Y-58730131D01*
X55416958Y-58729465D01*
X55333685Y-58741762D01*
G36*
X54206497Y-58751039D02*
X54149273Y-58789535D01*
X54105051Y-58845135D01*
X54078633Y-58915886D01*
X54073290Y-58967962D01*
X54073897Y-58989693D01*
X54078978Y-59006331D01*
X54092945Y-59021237D01*
X54120211Y-59037773D01*
X54165188Y-59059298D01*
X54232289Y-59089174D01*
X54232629Y-59089324D01*
X54294393Y-59117613D01*
X54345041Y-59142733D01*
X54379396Y-59161979D01*
X54392282Y-59172648D01*
X54392286Y-59172734D01*
X54380928Y-59195966D01*
X54354369Y-59221574D01*
X54323877Y-59240021D01*
X54308430Y-59243686D01*
X54266285Y-59231012D01*
X54229992Y-59199271D01*
X54212283Y-59164372D01*
X54195248Y-59138645D01*
X54161878Y-59109346D01*
X54122651Y-59084035D01*
X54088044Y-59070271D01*
X54080807Y-59069514D01*
X54072661Y-59081960D01*
X54072170Y-59113772D01*
X54078157Y-59156666D01*
X54089443Y-59202358D01*
X54104850Y-59242561D01*
X54105629Y-59244122D01*
X54151996Y-59308862D01*
X54212089Y-59352897D01*
X54280335Y-59374511D01*
X54351162Y-59371985D01*
X54418996Y-59343604D01*
X54422012Y-59341608D01*
X54475373Y-59293248D01*
X54510460Y-59230152D01*
X54529878Y-59147187D01*
X54532484Y-59123878D01*
X54537099Y-59013855D01*
X54531567Y-58962548D01*
X54392286Y-58962548D01*
X54390476Y-58994553D01*
X54380578Y-59003893D01*
X54355902Y-58996905D01*
X54317005Y-58980387D01*
X54273525Y-58959681D01*
X54272444Y-58959133D01*
X54235591Y-58939749D01*
X54220800Y-58926813D01*
X54224447Y-58913251D01*
X54239805Y-58895432D01*
X54278877Y-58869645D01*
X54320954Y-58867750D01*
X54358697Y-58886517D01*
X54384766Y-58922715D01*
X54392286Y-58962548D01*
X54531567Y-58962548D01*
X54527606Y-58925827D01*
X54503250Y-58856012D01*
X54469344Y-58807102D01*
X54408147Y-58757678D01*
X54340737Y-58733159D01*
X54271920Y-58731597D01*
X54206497Y-58751039D01*
X54206497Y-58751039D01*
G37*
X54206497Y-58751039D02*
X54149273Y-58789535D01*
X54105051Y-58845135D01*
X54078633Y-58915886D01*
X54073290Y-58967962D01*
X54073897Y-58989693D01*
X54078978Y-59006331D01*
X54092945Y-59021237D01*
X54120211Y-59037773D01*
X54165188Y-59059298D01*
X54232289Y-59089174D01*
X54232629Y-59089324D01*
X54294393Y-59117613D01*
X54345041Y-59142733D01*
X54379396Y-59161979D01*
X54392282Y-59172648D01*
X54392286Y-59172734D01*
X54380928Y-59195966D01*
X54354369Y-59221574D01*
X54323877Y-59240021D01*
X54308430Y-59243686D01*
X54266285Y-59231012D01*
X54229992Y-59199271D01*
X54212283Y-59164372D01*
X54195248Y-59138645D01*
X54161878Y-59109346D01*
X54122651Y-59084035D01*
X54088044Y-59070271D01*
X54080807Y-59069514D01*
X54072661Y-59081960D01*
X54072170Y-59113772D01*
X54078157Y-59156666D01*
X54089443Y-59202358D01*
X54104850Y-59242561D01*
X54105629Y-59244122D01*
X54151996Y-59308862D01*
X54212089Y-59352897D01*
X54280335Y-59374511D01*
X54351162Y-59371985D01*
X54418996Y-59343604D01*
X54422012Y-59341608D01*
X54475373Y-59293248D01*
X54510460Y-59230152D01*
X54529878Y-59147187D01*
X54532484Y-59123878D01*
X54537099Y-59013855D01*
X54531567Y-58962548D01*
X54392286Y-58962548D01*
X54390476Y-58994553D01*
X54380578Y-59003893D01*
X54355902Y-58996905D01*
X54317005Y-58980387D01*
X54273525Y-58959681D01*
X54272444Y-58959133D01*
X54235591Y-58939749D01*
X54220800Y-58926813D01*
X54224447Y-58913251D01*
X54239805Y-58895432D01*
X54278877Y-58869645D01*
X54320954Y-58867750D01*
X54358697Y-58886517D01*
X54384766Y-58922715D01*
X54392286Y-58962548D01*
X54531567Y-58962548D01*
X54527606Y-58925827D01*
X54503250Y-58856012D01*
X54469344Y-58807102D01*
X54408147Y-58757678D01*
X54340737Y-58733159D01*
X54271920Y-58731597D01*
X54206497Y-58751039D01*
G36*
X52998914Y-58671089D02*
X52994661Y-58730413D01*
X52989775Y-58765372D01*
X52983005Y-58780620D01*
X52973098Y-58780815D01*
X52969886Y-58778995D01*
X52927156Y-58765815D01*
X52871573Y-58766585D01*
X52815063Y-58780133D01*
X52779718Y-58797661D01*
X52743479Y-58825661D01*
X52716987Y-58857349D01*
X52698801Y-58897613D01*
X52687478Y-58951343D01*
X52681578Y-59023426D01*
X52679657Y-59118751D01*
X52679623Y-59137037D01*
X52679600Y-59342446D01*
X52725309Y-59358380D01*
X52757773Y-59369220D01*
X52775585Y-59374268D01*
X52776109Y-59374314D01*
X52777863Y-59360628D01*
X52779356Y-59322876D01*
X52780474Y-59266024D01*
X52781103Y-59195034D01*
X52781200Y-59151873D01*
X52781402Y-59066773D01*
X52782442Y-59005781D01*
X52784969Y-58963977D01*
X52789636Y-58936442D01*
X52797093Y-58918256D01*
X52807989Y-58904498D01*
X52814793Y-58897873D01*
X52861528Y-58871175D01*
X52912528Y-58869175D01*
X52958799Y-58891755D01*
X52967356Y-58899907D01*
X52979907Y-58915236D01*
X52988612Y-58933418D01*
X52994169Y-58959709D01*
X52997274Y-58999362D01*
X52998624Y-59057632D01*
X52998914Y-59137973D01*
X52998914Y-59342446D01*
X53044623Y-59358380D01*
X53077087Y-59369220D01*
X53094899Y-59374268D01*
X53095423Y-59374314D01*
X53096763Y-59360423D01*
X53097972Y-59321239D01*
X53098999Y-59260500D01*
X53099798Y-59181941D01*
X53100319Y-59089298D01*
X53100514Y-58986309D01*
X53100514Y-58589142D01*
X53053343Y-58569244D01*
X53006171Y-58549347D01*
X52998914Y-58671089D01*
X52998914Y-58671089D01*
G37*
X52998914Y-58671089D02*
X52994661Y-58730413D01*
X52989775Y-58765372D01*
X52983005Y-58780620D01*
X52973098Y-58780815D01*
X52969886Y-58778995D01*
X52927156Y-58765815D01*
X52871573Y-58766585D01*
X52815063Y-58780133D01*
X52779718Y-58797661D01*
X52743479Y-58825661D01*
X52716987Y-58857349D01*
X52698801Y-58897613D01*
X52687478Y-58951343D01*
X52681578Y-59023426D01*
X52679657Y-59118751D01*
X52679623Y-59137037D01*
X52679600Y-59342446D01*
X52725309Y-59358380D01*
X52757773Y-59369220D01*
X52775585Y-59374268D01*
X52776109Y-59374314D01*
X52777863Y-59360628D01*
X52779356Y-59322876D01*
X52780474Y-59266024D01*
X52781103Y-59195034D01*
X52781200Y-59151873D01*
X52781402Y-59066773D01*
X52782442Y-59005781D01*
X52784969Y-58963977D01*
X52789636Y-58936442D01*
X52797093Y-58918256D01*
X52807989Y-58904498D01*
X52814793Y-58897873D01*
X52861528Y-58871175D01*
X52912528Y-58869175D01*
X52958799Y-58891755D01*
X52967356Y-58899907D01*
X52979907Y-58915236D01*
X52988612Y-58933418D01*
X52994169Y-58959709D01*
X52997274Y-58999362D01*
X52998624Y-59057632D01*
X52998914Y-59137973D01*
X52998914Y-59342446D01*
X53044623Y-59358380D01*
X53077087Y-59369220D01*
X53094899Y-59374268D01*
X53095423Y-59374314D01*
X53096763Y-59360423D01*
X53097972Y-59321239D01*
X53098999Y-59260500D01*
X53099798Y-59181941D01*
X53100319Y-59089298D01*
X53100514Y-58986309D01*
X53100514Y-58589142D01*
X53053343Y-58569244D01*
X53006171Y-58549347D01*
X52998914Y-58671089D01*
G36*
X52335056Y-58770768D02*
X52278184Y-58791887D01*
X52277533Y-58792293D01*
X52242360Y-58818180D01*
X52216393Y-58848433D01*
X52198130Y-58887858D01*
X52186068Y-58941262D01*
X52178704Y-59013451D01*
X52174536Y-59109232D01*
X52174171Y-59122878D01*
X52168924Y-59328642D01*
X52213084Y-59351478D01*
X52245037Y-59366910D01*
X52264330Y-59374223D01*
X52265222Y-59374314D01*
X52268561Y-59360822D01*
X52271213Y-59324426D01*
X52272844Y-59271252D01*
X52273200Y-59228193D01*
X52273208Y-59158441D01*
X52276397Y-59114637D01*
X52287512Y-59093744D01*
X52311299Y-59092725D01*
X52352504Y-59108541D01*
X52414714Y-59137615D01*
X52460459Y-59161763D01*
X52483987Y-59182713D01*
X52490904Y-59205547D01*
X52490914Y-59206677D01*
X52479501Y-59246012D01*
X52445708Y-59267262D01*
X52393991Y-59270339D01*
X52356739Y-59269806D01*
X52337097Y-59280535D01*
X52324848Y-59306305D01*
X52317798Y-59339137D01*
X52327958Y-59357766D01*
X52331783Y-59360432D01*
X52367799Y-59371140D01*
X52418234Y-59372656D01*
X52470174Y-59365559D01*
X52506978Y-59352588D01*
X52557862Y-59309385D01*
X52586786Y-59249246D01*
X52592514Y-59202262D01*
X52588143Y-59159882D01*
X52572325Y-59125288D01*
X52541003Y-59094563D01*
X52490122Y-59063790D01*
X52415624Y-59029052D01*
X52411086Y-59027088D01*
X52343979Y-58996087D01*
X52302568Y-58970662D01*
X52284819Y-58947814D01*
X52288693Y-58924545D01*
X52312157Y-58897856D01*
X52319173Y-58891714D01*
X52366170Y-58867900D01*
X52414867Y-58868903D01*
X52457278Y-58892251D01*
X52485416Y-58935475D01*
X52488031Y-58943960D01*
X52513492Y-58985108D01*
X52545799Y-59004928D01*
X52592514Y-59024570D01*
X52592514Y-58973750D01*
X52578304Y-58899882D01*
X52536125Y-58832127D01*
X52514176Y-58809461D01*
X52464283Y-58780369D01*
X52400833Y-58767200D01*
X52335056Y-58770768D01*
X52335056Y-58770768D01*
G37*
X52335056Y-58770768D02*
X52278184Y-58791887D01*
X52277533Y-58792293D01*
X52242360Y-58818180D01*
X52216393Y-58848433D01*
X52198130Y-58887858D01*
X52186068Y-58941262D01*
X52178704Y-59013451D01*
X52174536Y-59109232D01*
X52174171Y-59122878D01*
X52168924Y-59328642D01*
X52213084Y-59351478D01*
X52245037Y-59366910D01*
X52264330Y-59374223D01*
X52265222Y-59374314D01*
X52268561Y-59360822D01*
X52271213Y-59324426D01*
X52272844Y-59271252D01*
X52273200Y-59228193D01*
X52273208Y-59158441D01*
X52276397Y-59114637D01*
X52287512Y-59093744D01*
X52311299Y-59092725D01*
X52352504Y-59108541D01*
X52414714Y-59137615D01*
X52460459Y-59161763D01*
X52483987Y-59182713D01*
X52490904Y-59205547D01*
X52490914Y-59206677D01*
X52479501Y-59246012D01*
X52445708Y-59267262D01*
X52393991Y-59270339D01*
X52356739Y-59269806D01*
X52337097Y-59280535D01*
X52324848Y-59306305D01*
X52317798Y-59339137D01*
X52327958Y-59357766D01*
X52331783Y-59360432D01*
X52367799Y-59371140D01*
X52418234Y-59372656D01*
X52470174Y-59365559D01*
X52506978Y-59352588D01*
X52557862Y-59309385D01*
X52586786Y-59249246D01*
X52592514Y-59202262D01*
X52588143Y-59159882D01*
X52572325Y-59125288D01*
X52541003Y-59094563D01*
X52490122Y-59063790D01*
X52415624Y-59029052D01*
X52411086Y-59027088D01*
X52343979Y-58996087D01*
X52302568Y-58970662D01*
X52284819Y-58947814D01*
X52288693Y-58924545D01*
X52312157Y-58897856D01*
X52319173Y-58891714D01*
X52366170Y-58867900D01*
X52414867Y-58868903D01*
X52457278Y-58892251D01*
X52485416Y-58935475D01*
X52488031Y-58943960D01*
X52513492Y-58985108D01*
X52545799Y-59004928D01*
X52592514Y-59024570D01*
X52592514Y-58973750D01*
X52578304Y-58899882D01*
X52536125Y-58832127D01*
X52514176Y-58809461D01*
X52464283Y-58780369D01*
X52400833Y-58767200D01*
X52335056Y-58770768D01*
G36*
X51844874Y-58769555D02*
X51778942Y-58793884D01*
X51725527Y-58836917D01*
X51704636Y-58867209D01*
X51681861Y-58922794D01*
X51682334Y-58962986D01*
X51706238Y-58990017D01*
X51715083Y-58994613D01*
X51753270Y-59008944D01*
X51772772Y-59005272D01*
X51779378Y-58981207D01*
X51779714Y-58967914D01*
X51791808Y-58919010D01*
X51823329Y-58884799D01*
X51867141Y-58868276D01*
X51916105Y-58872434D01*
X51955906Y-58894027D01*
X51969350Y-58906344D01*
X51978879Y-58921287D01*
X51985315Y-58943875D01*
X51989483Y-58979128D01*
X51992203Y-59032066D01*
X51994298Y-59107707D01*
X51994840Y-59131657D01*
X51996819Y-59213590D01*
X51999069Y-59271255D01*
X52002443Y-59309408D01*
X52007794Y-59332804D01*
X52015976Y-59346198D01*
X52027841Y-59354345D01*
X52035438Y-59357944D01*
X52067698Y-59370252D01*
X52086689Y-59374314D01*
X52092964Y-59360748D01*
X52096794Y-59319734D01*
X52098200Y-59250799D01*
X52097202Y-59153469D01*
X52096892Y-59138457D01*
X52094699Y-59049659D01*
X52092107Y-58984819D01*
X52088418Y-58938867D01*
X52082936Y-58906735D01*
X52074965Y-58883353D01*
X52063807Y-58863652D01*
X52057970Y-58855210D01*
X52024504Y-58817857D01*
X51987073Y-58788803D01*
X51982491Y-58786267D01*
X51915374Y-58766243D01*
X51844874Y-58769555D01*
X51844874Y-58769555D01*
G37*
X51844874Y-58769555D02*
X51778942Y-58793884D01*
X51725527Y-58836917D01*
X51704636Y-58867209D01*
X51681861Y-58922794D01*
X51682334Y-58962986D01*
X51706238Y-58990017D01*
X51715083Y-58994613D01*
X51753270Y-59008944D01*
X51772772Y-59005272D01*
X51779378Y-58981207D01*
X51779714Y-58967914D01*
X51791808Y-58919010D01*
X51823329Y-58884799D01*
X51867141Y-58868276D01*
X51916105Y-58872434D01*
X51955906Y-58894027D01*
X51969350Y-58906344D01*
X51978879Y-58921287D01*
X51985315Y-58943875D01*
X51989483Y-58979128D01*
X51992203Y-59032066D01*
X51994298Y-59107707D01*
X51994840Y-59131657D01*
X51996819Y-59213590D01*
X51999069Y-59271255D01*
X52002443Y-59309408D01*
X52007794Y-59332804D01*
X52015976Y-59346198D01*
X52027841Y-59354345D01*
X52035438Y-59357944D01*
X52067698Y-59370252D01*
X52086689Y-59374314D01*
X52092964Y-59360748D01*
X52096794Y-59319734D01*
X52098200Y-59250799D01*
X52097202Y-59153469D01*
X52096892Y-59138457D01*
X52094699Y-59049659D01*
X52092107Y-58984819D01*
X52088418Y-58938867D01*
X52082936Y-58906735D01*
X52074965Y-58883353D01*
X52063807Y-58863652D01*
X52057970Y-58855210D01*
X52024504Y-58817857D01*
X51987073Y-58788803D01*
X51982491Y-58786267D01*
X51915374Y-58766243D01*
X51844874Y-58769555D01*
G36*
X51184683Y-58885158D02*
X51184867Y-58993637D01*
X51185581Y-59077087D01*
X51187125Y-59139504D01*
X51189799Y-59184885D01*
X51193906Y-59217229D01*
X51199745Y-59240533D01*
X51207618Y-59258795D01*
X51213579Y-59269218D01*
X51262945Y-59325745D01*
X51325536Y-59361177D01*
X51394787Y-59373890D01*
X51464132Y-59362263D01*
X51505425Y-59341368D01*
X51548775Y-59305222D01*
X51578319Y-59261076D01*
X51596145Y-59203262D01*
X51604337Y-59126113D01*
X51605498Y-59069514D01*
X51605342Y-59065447D01*
X51503943Y-59065447D01*
X51503324Y-59130350D01*
X51500486Y-59173314D01*
X51493960Y-59201422D01*
X51482277Y-59221753D01*
X51468317Y-59237088D01*
X51421435Y-59266690D01*
X51371099Y-59269219D01*
X51323524Y-59244505D01*
X51319821Y-59241156D01*
X51304017Y-59223735D01*
X51294107Y-59203009D01*
X51288742Y-59172162D01*
X51286572Y-59124377D01*
X51286229Y-59071548D01*
X51286973Y-59005181D01*
X51290052Y-58960906D01*
X51296739Y-58931809D01*
X51308304Y-58910973D01*
X51317787Y-58899907D01*
X51361840Y-58871998D01*
X51412576Y-58868643D01*
X51461004Y-58889959D01*
X51470350Y-58897873D01*
X51486260Y-58915447D01*
X51496190Y-58936387D01*
X51501522Y-58967582D01*
X51503637Y-59015922D01*
X51503943Y-59065447D01*
X51605342Y-59065447D01*
X51601990Y-58978368D01*
X51590074Y-58909886D01*
X51567665Y-58858400D01*
X51532676Y-58818243D01*
X51505425Y-58797661D01*
X51455893Y-58775425D01*
X51398484Y-58765104D01*
X51345118Y-58767867D01*
X51315257Y-58779012D01*
X51303539Y-58782183D01*
X51295763Y-58770357D01*
X51290335Y-58738666D01*
X51286229Y-58690393D01*
X51281733Y-58636629D01*
X51275487Y-58604282D01*
X51264124Y-58585785D01*
X51244272Y-58573570D01*
X51231800Y-58568162D01*
X51184629Y-58548401D01*
X51184683Y-58885158D01*
X51184683Y-58885158D01*
G37*
X51184683Y-58885158D02*
X51184867Y-58993637D01*
X51185581Y-59077087D01*
X51187125Y-59139504D01*
X51189799Y-59184885D01*
X51193906Y-59217229D01*
X51199745Y-59240533D01*
X51207618Y-59258795D01*
X51213579Y-59269218D01*
X51262945Y-59325745D01*
X51325536Y-59361177D01*
X51394787Y-59373890D01*
X51464132Y-59362263D01*
X51505425Y-59341368D01*
X51548775Y-59305222D01*
X51578319Y-59261076D01*
X51596145Y-59203262D01*
X51604337Y-59126113D01*
X51605498Y-59069514D01*
X51605342Y-59065447D01*
X51503943Y-59065447D01*
X51503324Y-59130350D01*
X51500486Y-59173314D01*
X51493960Y-59201422D01*
X51482277Y-59221753D01*
X51468317Y-59237088D01*
X51421435Y-59266690D01*
X51371099Y-59269219D01*
X51323524Y-59244505D01*
X51319821Y-59241156D01*
X51304017Y-59223735D01*
X51294107Y-59203009D01*
X51288742Y-59172162D01*
X51286572Y-59124377D01*
X51286229Y-59071548D01*
X51286973Y-59005181D01*
X51290052Y-58960906D01*
X51296739Y-58931809D01*
X51308304Y-58910973D01*
X51317787Y-58899907D01*
X51361840Y-58871998D01*
X51412576Y-58868643D01*
X51461004Y-58889959D01*
X51470350Y-58897873D01*
X51486260Y-58915447D01*
X51496190Y-58936387D01*
X51501522Y-58967582D01*
X51503637Y-59015922D01*
X51503943Y-59065447D01*
X51605342Y-59065447D01*
X51601990Y-58978368D01*
X51590074Y-58909886D01*
X51567665Y-58858400D01*
X51532676Y-58818243D01*
X51505425Y-58797661D01*
X51455893Y-58775425D01*
X51398484Y-58765104D01*
X51345118Y-58767867D01*
X51315257Y-58779012D01*
X51303539Y-58782183D01*
X51295763Y-58770357D01*
X51290335Y-58738666D01*
X51286229Y-58690393D01*
X51281733Y-58636629D01*
X51275487Y-58604282D01*
X51264124Y-58585785D01*
X51244272Y-58573570D01*
X51231800Y-58568162D01*
X51184629Y-58548401D01*
X51184683Y-58885158D01*
G36*
X50594967Y-58778463D02*
X50592752Y-58816650D01*
X50591016Y-58874686D01*
X50589901Y-58947980D01*
X50589543Y-59024855D01*
X50589543Y-59284996D01*
X50635474Y-59330927D01*
X50667125Y-59359229D01*
X50694910Y-59370693D01*
X50732885Y-59369968D01*
X50747960Y-59368121D01*
X50795074Y-59362748D01*
X50834044Y-59359669D01*
X50843543Y-59359385D01*
X50875567Y-59361245D01*
X50921368Y-59365914D01*
X50939126Y-59368121D01*
X50982743Y-59371535D01*
X51012055Y-59364120D01*
X51041120Y-59341227D01*
X51051612Y-59330927D01*
X51097543Y-59284996D01*
X51097543Y-58798402D01*
X51060574Y-58781558D01*
X51028741Y-58769082D01*
X51010117Y-58764714D01*
X51005342Y-58778518D01*
X51000879Y-58817086D01*
X50997025Y-58876156D01*
X50994078Y-58951463D01*
X50992657Y-59015086D01*
X50988686Y-59265457D01*
X50954041Y-59270356D01*
X50922532Y-59266931D01*
X50907092Y-59255841D01*
X50902777Y-59235108D01*
X50899092Y-59190945D01*
X50896331Y-59128946D01*
X50894788Y-59054709D01*
X50894565Y-59016506D01*
X50894343Y-58796583D01*
X50848634Y-58780649D01*
X50816282Y-58769815D01*
X50798685Y-58764762D01*
X50798177Y-58764714D01*
X50796412Y-58778448D01*
X50794471Y-58816530D01*
X50792518Y-58874282D01*
X50790716Y-58947027D01*
X50789457Y-59015086D01*
X50785486Y-59265457D01*
X50698400Y-59265457D01*
X50694404Y-59037040D01*
X50690408Y-58808622D01*
X50647953Y-58786668D01*
X50616608Y-58771593D01*
X50598056Y-58764751D01*
X50597521Y-58764714D01*
X50594967Y-58778463D01*
X50594967Y-58778463D01*
G37*
X50594967Y-58778463D02*
X50592752Y-58816650D01*
X50591016Y-58874686D01*
X50589901Y-58947980D01*
X50589543Y-59024855D01*
X50589543Y-59284996D01*
X50635474Y-59330927D01*
X50667125Y-59359229D01*
X50694910Y-59370693D01*
X50732885Y-59369968D01*
X50747960Y-59368121D01*
X50795074Y-59362748D01*
X50834044Y-59359669D01*
X50843543Y-59359385D01*
X50875567Y-59361245D01*
X50921368Y-59365914D01*
X50939126Y-59368121D01*
X50982743Y-59371535D01*
X51012055Y-59364120D01*
X51041120Y-59341227D01*
X51051612Y-59330927D01*
X51097543Y-59284996D01*
X51097543Y-58798402D01*
X51060574Y-58781558D01*
X51028741Y-58769082D01*
X51010117Y-58764714D01*
X51005342Y-58778518D01*
X51000879Y-58817086D01*
X50997025Y-58876156D01*
X50994078Y-58951463D01*
X50992657Y-59015086D01*
X50988686Y-59265457D01*
X50954041Y-59270356D01*
X50922532Y-59266931D01*
X50907092Y-59255841D01*
X50902777Y-59235108D01*
X50899092Y-59190945D01*
X50896331Y-59128946D01*
X50894788Y-59054709D01*
X50894565Y-59016506D01*
X50894343Y-58796583D01*
X50848634Y-58780649D01*
X50816282Y-58769815D01*
X50798685Y-58764762D01*
X50798177Y-58764714D01*
X50796412Y-58778448D01*
X50794471Y-58816530D01*
X50792518Y-58874282D01*
X50790716Y-58947027D01*
X50789457Y-59015086D01*
X50785486Y-59265457D01*
X50698400Y-59265457D01*
X50694404Y-59037040D01*
X50690408Y-58808622D01*
X50647953Y-58786668D01*
X50616608Y-58771593D01*
X50598056Y-58764751D01*
X50597521Y-58764714D01*
X50594967Y-58778463D01*
G36*
X50229924Y-58776135D02*
X50188133Y-58795144D01*
X50155331Y-58818178D01*
X50131297Y-58843933D01*
X50114703Y-58877158D01*
X50104223Y-58922600D01*
X50098529Y-58985007D01*
X50096293Y-59069127D01*
X50096057Y-59124521D01*
X50096057Y-59340626D01*
X50133026Y-59357470D01*
X50162144Y-59369781D01*
X50176569Y-59374314D01*
X50179328Y-59360825D01*
X50181518Y-59324453D01*
X50182858Y-59271342D01*
X50183143Y-59229172D01*
X50184366Y-59168247D01*
X50187664Y-59119915D01*
X50192479Y-59090318D01*
X50196304Y-59084029D01*
X50222017Y-59090452D01*
X50262382Y-59106925D01*
X50309121Y-59129258D01*
X50353955Y-59153257D01*
X50388607Y-59174730D01*
X50404798Y-59189485D01*
X50404862Y-59189645D01*
X50403470Y-59216952D01*
X50390982Y-59243019D01*
X50369057Y-59264192D01*
X50337057Y-59271274D01*
X50309708Y-59270449D01*
X50270974Y-59269842D01*
X50250642Y-59278916D01*
X50238431Y-59302892D01*
X50236891Y-59307413D01*
X50231597Y-59341606D01*
X50245753Y-59362368D01*
X50282652Y-59372262D01*
X50322511Y-59374092D01*
X50394238Y-59360527D01*
X50431368Y-59341155D01*
X50477224Y-59295645D01*
X50501544Y-59239783D01*
X50503727Y-59180757D01*
X50483171Y-59125753D01*
X50452251Y-59091286D01*
X50421380Y-59071989D01*
X50372858Y-59047559D01*
X50316315Y-59022785D01*
X50306890Y-59018999D01*
X50244781Y-58991591D01*
X50208978Y-58967434D01*
X50197463Y-58943419D01*
X50208220Y-58916435D01*
X50226686Y-58895343D01*
X50270331Y-58869372D01*
X50318354Y-58867424D01*
X50362394Y-58887437D01*
X50394091Y-58927351D01*
X50398251Y-58937648D01*
X50422473Y-58975524D01*
X50457835Y-59003642D01*
X50502457Y-59026717D01*
X50502457Y-58961285D01*
X50499831Y-58921306D01*
X50488570Y-58889797D01*
X50463601Y-58856178D01*
X50439631Y-58830284D01*
X50402359Y-58793617D01*
X50373399Y-58773921D01*
X50342295Y-58766020D01*
X50307087Y-58764714D01*
X50229924Y-58776135D01*
X50229924Y-58776135D01*
G37*
X50229924Y-58776135D02*
X50188133Y-58795144D01*
X50155331Y-58818178D01*
X50131297Y-58843933D01*
X50114703Y-58877158D01*
X50104223Y-58922600D01*
X50098529Y-58985007D01*
X50096293Y-59069127D01*
X50096057Y-59124521D01*
X50096057Y-59340626D01*
X50133026Y-59357470D01*
X50162144Y-59369781D01*
X50176569Y-59374314D01*
X50179328Y-59360825D01*
X50181518Y-59324453D01*
X50182858Y-59271342D01*
X50183143Y-59229172D01*
X50184366Y-59168247D01*
X50187664Y-59119915D01*
X50192479Y-59090318D01*
X50196304Y-59084029D01*
X50222017Y-59090452D01*
X50262382Y-59106925D01*
X50309121Y-59129258D01*
X50353955Y-59153257D01*
X50388607Y-59174730D01*
X50404798Y-59189485D01*
X50404862Y-59189645D01*
X50403470Y-59216952D01*
X50390982Y-59243019D01*
X50369057Y-59264192D01*
X50337057Y-59271274D01*
X50309708Y-59270449D01*
X50270974Y-59269842D01*
X50250642Y-59278916D01*
X50238431Y-59302892D01*
X50236891Y-59307413D01*
X50231597Y-59341606D01*
X50245753Y-59362368D01*
X50282652Y-59372262D01*
X50322511Y-59374092D01*
X50394238Y-59360527D01*
X50431368Y-59341155D01*
X50477224Y-59295645D01*
X50501544Y-59239783D01*
X50503727Y-59180757D01*
X50483171Y-59125753D01*
X50452251Y-59091286D01*
X50421380Y-59071989D01*
X50372858Y-59047559D01*
X50316315Y-59022785D01*
X50306890Y-59018999D01*
X50244781Y-58991591D01*
X50208978Y-58967434D01*
X50197463Y-58943419D01*
X50208220Y-58916435D01*
X50226686Y-58895343D01*
X50270331Y-58869372D01*
X50318354Y-58867424D01*
X50362394Y-58887437D01*
X50394091Y-58927351D01*
X50398251Y-58937648D01*
X50422473Y-58975524D01*
X50457835Y-59003642D01*
X50502457Y-59026717D01*
X50502457Y-58961285D01*
X50499831Y-58921306D01*
X50488570Y-58889797D01*
X50463601Y-58856178D01*
X50439631Y-58830284D01*
X50402359Y-58793617D01*
X50373399Y-58773921D01*
X50342295Y-58766020D01*
X50307087Y-58764714D01*
X50229924Y-58776135D01*
G36*
X49722200Y-58778552D02*
X49704852Y-58786134D01*
X49663444Y-58818928D01*
X49628035Y-58866347D01*
X49606136Y-58916951D01*
X49602571Y-58941898D01*
X49614521Y-58976727D01*
X49640733Y-58995157D01*
X49668836Y-59006316D01*
X49681705Y-59008372D01*
X49687971Y-58993449D01*
X49700344Y-58960975D01*
X49705772Y-58946302D01*
X49736210Y-58895544D01*
X49780280Y-58870227D01*
X49836790Y-58871006D01*
X49840975Y-58872003D01*
X49871145Y-58886307D01*
X49893324Y-58914193D01*
X49908473Y-58959087D01*
X49917550Y-59024415D01*
X49921514Y-59113604D01*
X49921886Y-59161061D01*
X49922070Y-59235871D01*
X49923278Y-59286869D01*
X49926491Y-59319271D01*
X49932691Y-59338295D01*
X49942860Y-59349156D01*
X49957981Y-59357072D01*
X49958854Y-59357470D01*
X49987972Y-59369781D01*
X50002397Y-59374314D01*
X50004614Y-59360609D01*
X50006511Y-59322725D01*
X50007953Y-59265515D01*
X50008802Y-59193827D01*
X50008971Y-59141365D01*
X50008108Y-59039847D01*
X50004730Y-58962832D01*
X49997658Y-58905823D01*
X49985712Y-58864326D01*
X49967710Y-58833843D01*
X49942473Y-58809880D01*
X49917553Y-58793155D01*
X49857629Y-58770897D01*
X49787889Y-58765876D01*
X49722200Y-58778552D01*
X49722200Y-58778552D01*
G37*
X49722200Y-58778552D02*
X49704852Y-58786134D01*
X49663444Y-58818928D01*
X49628035Y-58866347D01*
X49606136Y-58916951D01*
X49602571Y-58941898D01*
X49614521Y-58976727D01*
X49640733Y-58995157D01*
X49668836Y-59006316D01*
X49681705Y-59008372D01*
X49687971Y-58993449D01*
X49700344Y-58960975D01*
X49705772Y-58946302D01*
X49736210Y-58895544D01*
X49780280Y-58870227D01*
X49836790Y-58871006D01*
X49840975Y-58872003D01*
X49871145Y-58886307D01*
X49893324Y-58914193D01*
X49908473Y-58959087D01*
X49917550Y-59024415D01*
X49921514Y-59113604D01*
X49921886Y-59161061D01*
X49922070Y-59235871D01*
X49923278Y-59286869D01*
X49926491Y-59319271D01*
X49932691Y-59338295D01*
X49942860Y-59349156D01*
X49957981Y-59357072D01*
X49958854Y-59357470D01*
X49987972Y-59369781D01*
X50002397Y-59374314D01*
X50004614Y-59360609D01*
X50006511Y-59322725D01*
X50007953Y-59265515D01*
X50008802Y-59193827D01*
X50008971Y-59141365D01*
X50008108Y-59039847D01*
X50004730Y-58962832D01*
X49997658Y-58905823D01*
X49985712Y-58864326D01*
X49967710Y-58833843D01*
X49942473Y-58809880D01*
X49917553Y-58793155D01*
X49857629Y-58770897D01*
X49787889Y-58765876D01*
X49722200Y-58778552D01*
G36*
X49221205Y-58786766D02*
X49163779Y-58824297D01*
X49136081Y-58857896D01*
X49114138Y-58918864D01*
X49112395Y-58967108D01*
X49116343Y-59031616D01*
X49265114Y-59096734D01*
X49337451Y-59130002D01*
X49384716Y-59156764D01*
X49409293Y-59179944D01*
X49413563Y-59202467D01*
X49399911Y-59227255D01*
X49384857Y-59243686D01*
X49341054Y-59270035D01*
X49293411Y-59271881D01*
X49249655Y-59251346D01*
X49217511Y-59210552D01*
X49211762Y-59196147D01*
X49184224Y-59151156D01*
X49152542Y-59131982D01*
X49109086Y-59115579D01*
X49109086Y-59177766D01*
X49112928Y-59220083D01*
X49127977Y-59255769D01*
X49159520Y-59296743D01*
X49164208Y-59302067D01*
X49199294Y-59338520D01*
X49229453Y-59358083D01*
X49267185Y-59367083D01*
X49298465Y-59370030D01*
X49354415Y-59370765D01*
X49394245Y-59361460D01*
X49419092Y-59347646D01*
X49458144Y-59317267D01*
X49485175Y-59284413D01*
X49502283Y-59243094D01*
X49511562Y-59187321D01*
X49515107Y-59111105D01*
X49515390Y-59072422D01*
X49514428Y-59026047D01*
X49426793Y-59026047D01*
X49425777Y-59050926D01*
X49423244Y-59055000D01*
X49406526Y-59049465D01*
X49370551Y-59034817D01*
X49322469Y-59013990D01*
X49312414Y-59009514D01*
X49251648Y-58978614D01*
X49218168Y-58951457D01*
X49210810Y-58926020D01*
X49228409Y-58900281D01*
X49242944Y-58888909D01*
X49295390Y-58866164D01*
X49344478Y-58869922D01*
X49385573Y-58897684D01*
X49414042Y-58946952D01*
X49423169Y-58986057D01*
X49426793Y-59026047D01*
X49514428Y-59026047D01*
X49513515Y-58982049D01*
X49506604Y-58915184D01*
X49492916Y-58866495D01*
X49470704Y-58830649D01*
X49438226Y-58802313D01*
X49424067Y-58793155D01*
X49359747Y-58769307D01*
X49289327Y-58767806D01*
X49221205Y-58786766D01*
X49221205Y-58786766D01*
G37*
X49221205Y-58786766D02*
X49163779Y-58824297D01*
X49136081Y-58857896D01*
X49114138Y-58918864D01*
X49112395Y-58967108D01*
X49116343Y-59031616D01*
X49265114Y-59096734D01*
X49337451Y-59130002D01*
X49384716Y-59156764D01*
X49409293Y-59179944D01*
X49413563Y-59202467D01*
X49399911Y-59227255D01*
X49384857Y-59243686D01*
X49341054Y-59270035D01*
X49293411Y-59271881D01*
X49249655Y-59251346D01*
X49217511Y-59210552D01*
X49211762Y-59196147D01*
X49184224Y-59151156D01*
X49152542Y-59131982D01*
X49109086Y-59115579D01*
X49109086Y-59177766D01*
X49112928Y-59220083D01*
X49127977Y-59255769D01*
X49159520Y-59296743D01*
X49164208Y-59302067D01*
X49199294Y-59338520D01*
X49229453Y-59358083D01*
X49267185Y-59367083D01*
X49298465Y-59370030D01*
X49354415Y-59370765D01*
X49394245Y-59361460D01*
X49419092Y-59347646D01*
X49458144Y-59317267D01*
X49485175Y-59284413D01*
X49502283Y-59243094D01*
X49511562Y-59187321D01*
X49515107Y-59111105D01*
X49515390Y-59072422D01*
X49514428Y-59026047D01*
X49426793Y-59026047D01*
X49425777Y-59050926D01*
X49423244Y-59055000D01*
X49406526Y-59049465D01*
X49370551Y-59034817D01*
X49322469Y-59013990D01*
X49312414Y-59009514D01*
X49251648Y-58978614D01*
X49218168Y-58951457D01*
X49210810Y-58926020D01*
X49228409Y-58900281D01*
X49242944Y-58888909D01*
X49295390Y-58866164D01*
X49344478Y-58869922D01*
X49385573Y-58897684D01*
X49414042Y-58946952D01*
X49423169Y-58986057D01*
X49426793Y-59026047D01*
X49514428Y-59026047D01*
X49513515Y-58982049D01*
X49506604Y-58915184D01*
X49492916Y-58866495D01*
X49470704Y-58830649D01*
X49438226Y-58802313D01*
X49424067Y-58793155D01*
X49359747Y-58769307D01*
X49289327Y-58767806D01*
X49221205Y-58786766D01*
G36*
X52270890Y-54062148D02*
X52192346Y-54062578D01*
X52135502Y-54063742D01*
X52096695Y-54066007D01*
X52072262Y-54069740D01*
X52058538Y-54075306D01*
X52051860Y-54083073D01*
X52048564Y-54093405D01*
X52048244Y-54094743D01*
X52043238Y-54118879D01*
X52033971Y-54166501D01*
X52021408Y-54232541D01*
X52006513Y-54311928D01*
X51990249Y-54399596D01*
X51989681Y-54402675D01*
X51973390Y-54488589D01*
X51958148Y-54564496D01*
X51944939Y-54625845D01*
X51934746Y-54668082D01*
X51928552Y-54686655D01*
X51928257Y-54686984D01*
X51910012Y-54696053D01*
X51872395Y-54711167D01*
X51823529Y-54729062D01*
X51823257Y-54729158D01*
X51761707Y-54752293D01*
X51689143Y-54781765D01*
X51620743Y-54811397D01*
X51617506Y-54812862D01*
X51506098Y-54863426D01*
X51259401Y-54694960D01*
X51183723Y-54643603D01*
X51115169Y-54597689D01*
X51057712Y-54559830D01*
X51015324Y-54532637D01*
X50991975Y-54518721D01*
X50989758Y-54517689D01*
X50972790Y-54522284D01*
X50941099Y-54544455D01*
X50893448Y-54585247D01*
X50828602Y-54645705D01*
X50762403Y-54710027D01*
X50698586Y-54773412D01*
X50641471Y-54831251D01*
X50594495Y-54879975D01*
X50561097Y-54916010D01*
X50544715Y-54935784D01*
X50544106Y-54936802D01*
X50542295Y-54950372D01*
X50549117Y-54972533D01*
X50566260Y-55006278D01*
X50595407Y-55054600D01*
X50638245Y-55120492D01*
X50695352Y-55205317D01*
X50746034Y-55279977D01*
X50791339Y-55346940D01*
X50828650Y-55402316D01*
X50855348Y-55442220D01*
X50868815Y-55462762D01*
X50869663Y-55464156D01*
X50868019Y-55483838D01*
X50855555Y-55522093D01*
X50834752Y-55571689D01*
X50827338Y-55587528D01*
X50794986Y-55658090D01*
X50760472Y-55738153D01*
X50732435Y-55807429D01*
X50712232Y-55858845D01*
X50696185Y-55897919D01*
X50686912Y-55918341D01*
X50685759Y-55919914D01*
X50668704Y-55922521D01*
X50628502Y-55929663D01*
X50570498Y-55940323D01*
X50500037Y-55953485D01*
X50422465Y-55968133D01*
X50343128Y-55983249D01*
X50267369Y-55997818D01*
X50200536Y-56010822D01*
X50147972Y-56021245D01*
X50115024Y-56028070D01*
X50106943Y-56029999D01*
X50098595Y-56034762D01*
X50092294Y-56045518D01*
X50087755Y-56065898D01*
X50084696Y-56099534D01*
X50082833Y-56150055D01*
X50081882Y-56221092D01*
X50081560Y-56316276D01*
X50081543Y-56355292D01*
X50081543Y-56672599D01*
X50157743Y-56687639D01*
X50200137Y-56695795D01*
X50263400Y-56707699D01*
X50339838Y-56721916D01*
X50421757Y-56737010D01*
X50444400Y-56741155D01*
X50519994Y-56755853D01*
X50585847Y-56770305D01*
X50636434Y-56783175D01*
X50666226Y-56793122D01*
X50671188Y-56796087D01*
X50683374Y-56817083D01*
X50700847Y-56857767D01*
X50720223Y-56910122D01*
X50724066Y-56921400D01*
X50749461Y-56991323D01*
X50780983Y-57070218D01*
X50811831Y-57141066D01*
X50811983Y-57141395D01*
X50863353Y-57252533D01*
X50694401Y-57501053D01*
X50525448Y-57749572D01*
X50742371Y-57966858D01*
X50807981Y-58031526D01*
X50867821Y-58088533D01*
X50918533Y-58134833D01*
X50956754Y-58167384D01*
X50979125Y-58183143D01*
X50982334Y-58184143D01*
X51001174Y-58176269D01*
X51039620Y-58154378D01*
X51093470Y-58121067D01*
X51158524Y-58078931D01*
X51228860Y-58031743D01*
X51300245Y-57983610D01*
X51363892Y-57941728D01*
X51415759Y-57908671D01*
X51451805Y-57887018D01*
X51467933Y-57879343D01*
X51487611Y-57885837D01*
X51524925Y-57902950D01*
X51572179Y-57927126D01*
X51577188Y-57929813D01*
X51640823Y-57961727D01*
X51684459Y-57977379D01*
X51711598Y-57977545D01*
X51725743Y-57963004D01*
X51725825Y-57962800D01*
X51732895Y-57945579D01*
X51749758Y-57904699D01*
X51775105Y-57843325D01*
X51807629Y-57764619D01*
X51846022Y-57671747D01*
X51888978Y-57567872D01*
X51930578Y-57467302D01*
X51976296Y-57356316D01*
X52018274Y-57253503D01*
X52055252Y-57162015D01*
X52085973Y-57085001D01*
X52109178Y-57025615D01*
X52123610Y-56987009D01*
X52128057Y-56972600D01*
X52116904Y-56956072D01*
X52087731Y-56929730D01*
X52048829Y-56900687D01*
X51938043Y-56808839D01*
X51851449Y-56703559D01*
X51790084Y-56587066D01*
X51754985Y-56461576D01*
X51747192Y-56329307D01*
X51752857Y-56268257D01*
X51783722Y-56141595D01*
X51836880Y-56029741D01*
X51909033Y-55933801D01*
X51996883Y-55854876D01*
X52097135Y-55794070D01*
X52206490Y-55752487D01*
X52321653Y-55731228D01*
X52439325Y-55731399D01*
X52556210Y-55754101D01*
X52669011Y-55800438D01*
X52774431Y-55871513D01*
X52818432Y-55911711D01*
X52902821Y-56014929D01*
X52961578Y-56127725D01*
X52995096Y-56246810D01*
X53003765Y-56368895D01*
X52987977Y-56490693D01*
X52948122Y-56608916D01*
X52884593Y-56720275D01*
X52797779Y-56821484D01*
X52700771Y-56900687D01*
X52660363Y-56930962D01*
X52631818Y-56957019D01*
X52621543Y-56972625D01*
X52626923Y-56989643D01*
X52642225Y-57030300D01*
X52666188Y-57091442D01*
X52697556Y-57169919D01*
X52735068Y-57262580D01*
X52777467Y-57366272D01*
X52819137Y-57467326D01*
X52865110Y-57578407D01*
X52907693Y-57681341D01*
X52945579Y-57772965D01*
X52977460Y-57850116D01*
X53002029Y-57909631D01*
X53017980Y-57948344D01*
X53023890Y-57962800D01*
X53037852Y-57977485D01*
X53064860Y-57977442D01*
X53108387Y-57961899D01*
X53171910Y-57930084D01*
X53172412Y-57929813D01*
X53220240Y-57905123D01*
X53258903Y-57887138D01*
X53280705Y-57879414D01*
X53281667Y-57879343D01*
X53298079Y-57887178D01*
X53334313Y-57908965D01*
X53386326Y-57942128D01*
X53450075Y-57984091D01*
X53520740Y-58031743D01*
X53592684Y-58079991D01*
X53657526Y-58121951D01*
X53711065Y-58155027D01*
X53749103Y-58176621D01*
X53767267Y-58184143D01*
X53783992Y-58174257D01*
X53817620Y-58146626D01*
X53864790Y-58104295D01*
X53922142Y-58050305D01*
X53986316Y-57987699D01*
X54007303Y-57966783D01*
X54224301Y-57749423D01*
X54059132Y-57507020D01*
X54008936Y-57432581D01*
X53964881Y-57365772D01*
X53929438Y-57310465D01*
X53905081Y-57270529D01*
X53894278Y-57249836D01*
X53893962Y-57248363D01*
X53899657Y-57228858D01*
X53914974Y-57189622D01*
X53937263Y-57137230D01*
X53952907Y-57102155D01*
X53982159Y-57035001D01*
X54009706Y-56967158D01*
X54031063Y-56909834D01*
X54036865Y-56892372D01*
X54053348Y-56845738D01*
X54069460Y-56809705D01*
X54078310Y-56796087D01*
X54097840Y-56787752D01*
X54140466Y-56775937D01*
X54200655Y-56761981D01*
X54272878Y-56747222D01*
X54305200Y-56741155D01*
X54387278Y-56726073D01*
X54466005Y-56711469D01*
X54533691Y-56698780D01*
X54582640Y-56689442D01*
X54591857Y-56687639D01*
X54668057Y-56672599D01*
X54668057Y-56355292D01*
X54667886Y-56250954D01*
X54667184Y-56172013D01*
X54665666Y-56114838D01*
X54663051Y-56075799D01*
X54659054Y-56051265D01*
X54653391Y-56037605D01*
X54645780Y-56031189D01*
X54642657Y-56029999D01*
X54623822Y-56025780D01*
X54582212Y-56017362D01*
X54523170Y-56005761D01*
X54452043Y-55991995D01*
X54374175Y-55977080D01*
X54294913Y-55962032D01*
X54219602Y-55947869D01*
X54153587Y-55935606D01*
X54102213Y-55926261D01*
X54070825Y-55920850D01*
X54063841Y-55919914D01*
X54057515Y-55907396D01*
X54043510Y-55874046D01*
X54024445Y-55826177D01*
X54017166Y-55807429D01*
X53987804Y-55734995D01*
X53953229Y-55654970D01*
X53922263Y-55587528D01*
X53899477Y-55535959D01*
X53884318Y-55493585D01*
X53879258Y-55467634D01*
X53880064Y-55464156D01*
X53890759Y-55447736D01*
X53915180Y-55411217D01*
X53950705Y-55358487D01*
X53994713Y-55293435D01*
X54044583Y-55219951D01*
X54054444Y-55205445D01*
X54112308Y-55119504D01*
X54154844Y-55054061D01*
X54183746Y-55006104D01*
X54200710Y-54972620D01*
X54207433Y-54950595D01*
X54205610Y-54937017D01*
X54205564Y-54936931D01*
X54191214Y-54919097D01*
X54159477Y-54884617D01*
X54113790Y-54837068D01*
X54057596Y-54780022D01*
X53994332Y-54717055D01*
X53987198Y-54710027D01*
X53907470Y-54632820D01*
X53845943Y-54576130D01*
X53801379Y-54538910D01*
X53772543Y-54520115D01*
X53759842Y-54517689D01*
X53741306Y-54528271D01*
X53702839Y-54552716D01*
X53648414Y-54588412D01*
X53582002Y-54632747D01*
X53507575Y-54683111D01*
X53490199Y-54694960D01*
X53243503Y-54863426D01*
X53132094Y-54812862D01*
X53064343Y-54783395D01*
X52991617Y-54753759D01*
X52929097Y-54730130D01*
X52926343Y-54729158D01*
X52877440Y-54711257D01*
X52839743Y-54696120D01*
X52821375Y-54687010D01*
X52821344Y-54686984D01*
X52815515Y-54670517D01*
X52805608Y-54630019D01*
X52792605Y-54570042D01*
X52777491Y-54495140D01*
X52761248Y-54409864D01*
X52759919Y-54402675D01*
X52743625Y-54314814D01*
X52728667Y-54235060D01*
X52716009Y-54168481D01*
X52706614Y-54120147D01*
X52701446Y-54095125D01*
X52701356Y-54094743D01*
X52698211Y-54084099D01*
X52692096Y-54076062D01*
X52679347Y-54070267D01*
X52656300Y-54066347D01*
X52619291Y-54063935D01*
X52564656Y-54062665D01*
X52488733Y-54062171D01*
X52387856Y-54062086D01*
X52374800Y-54062086D01*
X52270890Y-54062148D01*
X52270890Y-54062148D01*
G37*
X52270890Y-54062148D02*
X52192346Y-54062578D01*
X52135502Y-54063742D01*
X52096695Y-54066007D01*
X52072262Y-54069740D01*
X52058538Y-54075306D01*
X52051860Y-54083073D01*
X52048564Y-54093405D01*
X52048244Y-54094743D01*
X52043238Y-54118879D01*
X52033971Y-54166501D01*
X52021408Y-54232541D01*
X52006513Y-54311928D01*
X51990249Y-54399596D01*
X51989681Y-54402675D01*
X51973390Y-54488589D01*
X51958148Y-54564496D01*
X51944939Y-54625845D01*
X51934746Y-54668082D01*
X51928552Y-54686655D01*
X51928257Y-54686984D01*
X51910012Y-54696053D01*
X51872395Y-54711167D01*
X51823529Y-54729062D01*
X51823257Y-54729158D01*
X51761707Y-54752293D01*
X51689143Y-54781765D01*
X51620743Y-54811397D01*
X51617506Y-54812862D01*
X51506098Y-54863426D01*
X51259401Y-54694960D01*
X51183723Y-54643603D01*
X51115169Y-54597689D01*
X51057712Y-54559830D01*
X51015324Y-54532637D01*
X50991975Y-54518721D01*
X50989758Y-54517689D01*
X50972790Y-54522284D01*
X50941099Y-54544455D01*
X50893448Y-54585247D01*
X50828602Y-54645705D01*
X50762403Y-54710027D01*
X50698586Y-54773412D01*
X50641471Y-54831251D01*
X50594495Y-54879975D01*
X50561097Y-54916010D01*
X50544715Y-54935784D01*
X50544106Y-54936802D01*
X50542295Y-54950372D01*
X50549117Y-54972533D01*
X50566260Y-55006278D01*
X50595407Y-55054600D01*
X50638245Y-55120492D01*
X50695352Y-55205317D01*
X50746034Y-55279977D01*
X50791339Y-55346940D01*
X50828650Y-55402316D01*
X50855348Y-55442220D01*
X50868815Y-55462762D01*
X50869663Y-55464156D01*
X50868019Y-55483838D01*
X50855555Y-55522093D01*
X50834752Y-55571689D01*
X50827338Y-55587528D01*
X50794986Y-55658090D01*
X50760472Y-55738153D01*
X50732435Y-55807429D01*
X50712232Y-55858845D01*
X50696185Y-55897919D01*
X50686912Y-55918341D01*
X50685759Y-55919914D01*
X50668704Y-55922521D01*
X50628502Y-55929663D01*
X50570498Y-55940323D01*
X50500037Y-55953485D01*
X50422465Y-55968133D01*
X50343128Y-55983249D01*
X50267369Y-55997818D01*
X50200536Y-56010822D01*
X50147972Y-56021245D01*
X50115024Y-56028070D01*
X50106943Y-56029999D01*
X50098595Y-56034762D01*
X50092294Y-56045518D01*
X50087755Y-56065898D01*
X50084696Y-56099534D01*
X50082833Y-56150055D01*
X50081882Y-56221092D01*
X50081560Y-56316276D01*
X50081543Y-56355292D01*
X50081543Y-56672599D01*
X50157743Y-56687639D01*
X50200137Y-56695795D01*
X50263400Y-56707699D01*
X50339838Y-56721916D01*
X50421757Y-56737010D01*
X50444400Y-56741155D01*
X50519994Y-56755853D01*
X50585847Y-56770305D01*
X50636434Y-56783175D01*
X50666226Y-56793122D01*
X50671188Y-56796087D01*
X50683374Y-56817083D01*
X50700847Y-56857767D01*
X50720223Y-56910122D01*
X50724066Y-56921400D01*
X50749461Y-56991323D01*
X50780983Y-57070218D01*
X50811831Y-57141066D01*
X50811983Y-57141395D01*
X50863353Y-57252533D01*
X50694401Y-57501053D01*
X50525448Y-57749572D01*
X50742371Y-57966858D01*
X50807981Y-58031526D01*
X50867821Y-58088533D01*
X50918533Y-58134833D01*
X50956754Y-58167384D01*
X50979125Y-58183143D01*
X50982334Y-58184143D01*
X51001174Y-58176269D01*
X51039620Y-58154378D01*
X51093470Y-58121067D01*
X51158524Y-58078931D01*
X51228860Y-58031743D01*
X51300245Y-57983610D01*
X51363892Y-57941728D01*
X51415759Y-57908671D01*
X51451805Y-57887018D01*
X51467933Y-57879343D01*
X51487611Y-57885837D01*
X51524925Y-57902950D01*
X51572179Y-57927126D01*
X51577188Y-57929813D01*
X51640823Y-57961727D01*
X51684459Y-57977379D01*
X51711598Y-57977545D01*
X51725743Y-57963004D01*
X51725825Y-57962800D01*
X51732895Y-57945579D01*
X51749758Y-57904699D01*
X51775105Y-57843325D01*
X51807629Y-57764619D01*
X51846022Y-57671747D01*
X51888978Y-57567872D01*
X51930578Y-57467302D01*
X51976296Y-57356316D01*
X52018274Y-57253503D01*
X52055252Y-57162015D01*
X52085973Y-57085001D01*
X52109178Y-57025615D01*
X52123610Y-56987009D01*
X52128057Y-56972600D01*
X52116904Y-56956072D01*
X52087731Y-56929730D01*
X52048829Y-56900687D01*
X51938043Y-56808839D01*
X51851449Y-56703559D01*
X51790084Y-56587066D01*
X51754985Y-56461576D01*
X51747192Y-56329307D01*
X51752857Y-56268257D01*
X51783722Y-56141595D01*
X51836880Y-56029741D01*
X51909033Y-55933801D01*
X51996883Y-55854876D01*
X52097135Y-55794070D01*
X52206490Y-55752487D01*
X52321653Y-55731228D01*
X52439325Y-55731399D01*
X52556210Y-55754101D01*
X52669011Y-55800438D01*
X52774431Y-55871513D01*
X52818432Y-55911711D01*
X52902821Y-56014929D01*
X52961578Y-56127725D01*
X52995096Y-56246810D01*
X53003765Y-56368895D01*
X52987977Y-56490693D01*
X52948122Y-56608916D01*
X52884593Y-56720275D01*
X52797779Y-56821484D01*
X52700771Y-56900687D01*
X52660363Y-56930962D01*
X52631818Y-56957019D01*
X52621543Y-56972625D01*
X52626923Y-56989643D01*
X52642225Y-57030300D01*
X52666188Y-57091442D01*
X52697556Y-57169919D01*
X52735068Y-57262580D01*
X52777467Y-57366272D01*
X52819137Y-57467326D01*
X52865110Y-57578407D01*
X52907693Y-57681341D01*
X52945579Y-57772965D01*
X52977460Y-57850116D01*
X53002029Y-57909631D01*
X53017980Y-57948344D01*
X53023890Y-57962800D01*
X53037852Y-57977485D01*
X53064860Y-57977442D01*
X53108387Y-57961899D01*
X53171910Y-57930084D01*
X53172412Y-57929813D01*
X53220240Y-57905123D01*
X53258903Y-57887138D01*
X53280705Y-57879414D01*
X53281667Y-57879343D01*
X53298079Y-57887178D01*
X53334313Y-57908965D01*
X53386326Y-57942128D01*
X53450075Y-57984091D01*
X53520740Y-58031743D01*
X53592684Y-58079991D01*
X53657526Y-58121951D01*
X53711065Y-58155027D01*
X53749103Y-58176621D01*
X53767267Y-58184143D01*
X53783992Y-58174257D01*
X53817620Y-58146626D01*
X53864790Y-58104295D01*
X53922142Y-58050305D01*
X53986316Y-57987699D01*
X54007303Y-57966783D01*
X54224301Y-57749423D01*
X54059132Y-57507020D01*
X54008936Y-57432581D01*
X53964881Y-57365772D01*
X53929438Y-57310465D01*
X53905081Y-57270529D01*
X53894278Y-57249836D01*
X53893962Y-57248363D01*
X53899657Y-57228858D01*
X53914974Y-57189622D01*
X53937263Y-57137230D01*
X53952907Y-57102155D01*
X53982159Y-57035001D01*
X54009706Y-56967158D01*
X54031063Y-56909834D01*
X54036865Y-56892372D01*
X54053348Y-56845738D01*
X54069460Y-56809705D01*
X54078310Y-56796087D01*
X54097840Y-56787752D01*
X54140466Y-56775937D01*
X54200655Y-56761981D01*
X54272878Y-56747222D01*
X54305200Y-56741155D01*
X54387278Y-56726073D01*
X54466005Y-56711469D01*
X54533691Y-56698780D01*
X54582640Y-56689442D01*
X54591857Y-56687639D01*
X54668057Y-56672599D01*
X54668057Y-56355292D01*
X54667886Y-56250954D01*
X54667184Y-56172013D01*
X54665666Y-56114838D01*
X54663051Y-56075799D01*
X54659054Y-56051265D01*
X54653391Y-56037605D01*
X54645780Y-56031189D01*
X54642657Y-56029999D01*
X54623822Y-56025780D01*
X54582212Y-56017362D01*
X54523170Y-56005761D01*
X54452043Y-55991995D01*
X54374175Y-55977080D01*
X54294913Y-55962032D01*
X54219602Y-55947869D01*
X54153587Y-55935606D01*
X54102213Y-55926261D01*
X54070825Y-55920850D01*
X54063841Y-55919914D01*
X54057515Y-55907396D01*
X54043510Y-55874046D01*
X54024445Y-55826177D01*
X54017166Y-55807429D01*
X53987804Y-55734995D01*
X53953229Y-55654970D01*
X53922263Y-55587528D01*
X53899477Y-55535959D01*
X53884318Y-55493585D01*
X53879258Y-55467634D01*
X53880064Y-55464156D01*
X53890759Y-55447736D01*
X53915180Y-55411217D01*
X53950705Y-55358487D01*
X53994713Y-55293435D01*
X54044583Y-55219951D01*
X54054444Y-55205445D01*
X54112308Y-55119504D01*
X54154844Y-55054061D01*
X54183746Y-55006104D01*
X54200710Y-54972620D01*
X54207433Y-54950595D01*
X54205610Y-54937017D01*
X54205564Y-54936931D01*
X54191214Y-54919097D01*
X54159477Y-54884617D01*
X54113790Y-54837068D01*
X54057596Y-54780022D01*
X53994332Y-54717055D01*
X53987198Y-54710027D01*
X53907470Y-54632820D01*
X53845943Y-54576130D01*
X53801379Y-54538910D01*
X53772543Y-54520115D01*
X53759842Y-54517689D01*
X53741306Y-54528271D01*
X53702839Y-54552716D01*
X53648414Y-54588412D01*
X53582002Y-54632747D01*
X53507575Y-54683111D01*
X53490199Y-54694960D01*
X53243503Y-54863426D01*
X53132094Y-54812862D01*
X53064343Y-54783395D01*
X52991617Y-54753759D01*
X52929097Y-54730130D01*
X52926343Y-54729158D01*
X52877440Y-54711257D01*
X52839743Y-54696120D01*
X52821375Y-54687010D01*
X52821344Y-54686984D01*
X52815515Y-54670517D01*
X52805608Y-54630019D01*
X52792605Y-54570042D01*
X52777491Y-54495140D01*
X52761248Y-54409864D01*
X52759919Y-54402675D01*
X52743625Y-54314814D01*
X52728667Y-54235060D01*
X52716009Y-54168481D01*
X52706614Y-54120147D01*
X52701446Y-54095125D01*
X52701356Y-54094743D01*
X52698211Y-54084099D01*
X52692096Y-54076062D01*
X52679347Y-54070267D01*
X52656300Y-54066347D01*
X52619291Y-54063935D01*
X52564656Y-54062665D01*
X52488733Y-54062171D01*
X52387856Y-54062086D01*
X52374800Y-54062086D01*
X52270890Y-54062148D01*
G04 #@! TD*
M02*
