G04 #@! TF.GenerationSoftware,KiCad,Pcbnew,(5.0.0)*
G04 #@! TF.CreationDate,2021-07-17T15:24:55-07:00*
G04 #@! TF.ProjectId,RaspberryPiHat Board,52617370626572727950694861742042,Raspberry Pi Hat *
G04 #@! TF.SameCoordinates,Original*
G04 #@! TF.FileFunction,Paste,Top*
G04 #@! TF.FilePolarity,Positive*
%FSLAX46Y46*%
G04 Gerber Fmt 4.6, Leading zero omitted, Abs format (unit mm)*
G04 Created by KiCad (PCBNEW (5.0.0)) date 07/17/21 15:24:55*
%MOMM*%
%LPD*%
G01*
G04 APERTURE LIST*
%ADD10C,0.100000*%
%ADD11C,1.200000*%
%ADD12R,1.500000X1.300000*%
G04 APERTURE END LIST*
D10*
G04 #@! TO.C,R2*
G36*
X50929905Y-55435204D02*
X50954173Y-55438804D01*
X50977972Y-55444765D01*
X51001071Y-55453030D01*
X51023250Y-55463520D01*
X51044293Y-55476132D01*
X51063999Y-55490747D01*
X51082177Y-55507223D01*
X51098653Y-55525401D01*
X51113268Y-55545107D01*
X51125880Y-55566150D01*
X51136370Y-55588329D01*
X51144635Y-55611428D01*
X51150596Y-55635227D01*
X51154196Y-55659495D01*
X51155400Y-55683999D01*
X51155400Y-56584001D01*
X51154196Y-56608505D01*
X51150596Y-56632773D01*
X51144635Y-56656572D01*
X51136370Y-56679671D01*
X51125880Y-56701850D01*
X51113268Y-56722893D01*
X51098653Y-56742599D01*
X51082177Y-56760777D01*
X51063999Y-56777253D01*
X51044293Y-56791868D01*
X51023250Y-56804480D01*
X51001071Y-56814970D01*
X50977972Y-56823235D01*
X50954173Y-56829196D01*
X50929905Y-56832796D01*
X50905401Y-56834000D01*
X50205399Y-56834000D01*
X50180895Y-56832796D01*
X50156627Y-56829196D01*
X50132828Y-56823235D01*
X50109729Y-56814970D01*
X50087550Y-56804480D01*
X50066507Y-56791868D01*
X50046801Y-56777253D01*
X50028623Y-56760777D01*
X50012147Y-56742599D01*
X49997532Y-56722893D01*
X49984920Y-56701850D01*
X49974430Y-56679671D01*
X49966165Y-56656572D01*
X49960204Y-56632773D01*
X49956604Y-56608505D01*
X49955400Y-56584001D01*
X49955400Y-55683999D01*
X49956604Y-55659495D01*
X49960204Y-55635227D01*
X49966165Y-55611428D01*
X49974430Y-55588329D01*
X49984920Y-55566150D01*
X49997532Y-55545107D01*
X50012147Y-55525401D01*
X50028623Y-55507223D01*
X50046801Y-55490747D01*
X50066507Y-55476132D01*
X50087550Y-55463520D01*
X50109729Y-55453030D01*
X50132828Y-55444765D01*
X50156627Y-55438804D01*
X50180895Y-55435204D01*
X50205399Y-55434000D01*
X50905401Y-55434000D01*
X50929905Y-55435204D01*
X50929905Y-55435204D01*
G37*
D11*
X50555400Y-56134000D03*
D10*
G36*
X48929905Y-55435204D02*
X48954173Y-55438804D01*
X48977972Y-55444765D01*
X49001071Y-55453030D01*
X49023250Y-55463520D01*
X49044293Y-55476132D01*
X49063999Y-55490747D01*
X49082177Y-55507223D01*
X49098653Y-55525401D01*
X49113268Y-55545107D01*
X49125880Y-55566150D01*
X49136370Y-55588329D01*
X49144635Y-55611428D01*
X49150596Y-55635227D01*
X49154196Y-55659495D01*
X49155400Y-55683999D01*
X49155400Y-56584001D01*
X49154196Y-56608505D01*
X49150596Y-56632773D01*
X49144635Y-56656572D01*
X49136370Y-56679671D01*
X49125880Y-56701850D01*
X49113268Y-56722893D01*
X49098653Y-56742599D01*
X49082177Y-56760777D01*
X49063999Y-56777253D01*
X49044293Y-56791868D01*
X49023250Y-56804480D01*
X49001071Y-56814970D01*
X48977972Y-56823235D01*
X48954173Y-56829196D01*
X48929905Y-56832796D01*
X48905401Y-56834000D01*
X48205399Y-56834000D01*
X48180895Y-56832796D01*
X48156627Y-56829196D01*
X48132828Y-56823235D01*
X48109729Y-56814970D01*
X48087550Y-56804480D01*
X48066507Y-56791868D01*
X48046801Y-56777253D01*
X48028623Y-56760777D01*
X48012147Y-56742599D01*
X47997532Y-56722893D01*
X47984920Y-56701850D01*
X47974430Y-56679671D01*
X47966165Y-56656572D01*
X47960204Y-56632773D01*
X47956604Y-56608505D01*
X47955400Y-56584001D01*
X47955400Y-55683999D01*
X47956604Y-55659495D01*
X47960204Y-55635227D01*
X47966165Y-55611428D01*
X47974430Y-55588329D01*
X47984920Y-55566150D01*
X47997532Y-55545107D01*
X48012147Y-55525401D01*
X48028623Y-55507223D01*
X48046801Y-55490747D01*
X48066507Y-55476132D01*
X48087550Y-55463520D01*
X48109729Y-55453030D01*
X48132828Y-55444765D01*
X48156627Y-55438804D01*
X48180895Y-55435204D01*
X48205399Y-55434000D01*
X48905401Y-55434000D01*
X48929905Y-55435204D01*
X48929905Y-55435204D01*
G37*
D11*
X48555400Y-56134000D03*
G04 #@! TD*
D12*
G04 #@! TO.C,D1*
X59846200Y-59385200D03*
X57146200Y-59385200D03*
G04 #@! TD*
G04 #@! TO.C,D2*
X57120800Y-56184800D03*
X59820800Y-56184800D03*
G04 #@! TD*
D10*
G04 #@! TO.C,R1*
G36*
X44789705Y-55384404D02*
X44813973Y-55388004D01*
X44837772Y-55393965D01*
X44860871Y-55402230D01*
X44883050Y-55412720D01*
X44904093Y-55425332D01*
X44923799Y-55439947D01*
X44941977Y-55456423D01*
X44958453Y-55474601D01*
X44973068Y-55494307D01*
X44985680Y-55515350D01*
X44996170Y-55537529D01*
X45004435Y-55560628D01*
X45010396Y-55584427D01*
X45013996Y-55608695D01*
X45015200Y-55633199D01*
X45015200Y-56533201D01*
X45013996Y-56557705D01*
X45010396Y-56581973D01*
X45004435Y-56605772D01*
X44996170Y-56628871D01*
X44985680Y-56651050D01*
X44973068Y-56672093D01*
X44958453Y-56691799D01*
X44941977Y-56709977D01*
X44923799Y-56726453D01*
X44904093Y-56741068D01*
X44883050Y-56753680D01*
X44860871Y-56764170D01*
X44837772Y-56772435D01*
X44813973Y-56778396D01*
X44789705Y-56781996D01*
X44765201Y-56783200D01*
X44065199Y-56783200D01*
X44040695Y-56781996D01*
X44016427Y-56778396D01*
X43992628Y-56772435D01*
X43969529Y-56764170D01*
X43947350Y-56753680D01*
X43926307Y-56741068D01*
X43906601Y-56726453D01*
X43888423Y-56709977D01*
X43871947Y-56691799D01*
X43857332Y-56672093D01*
X43844720Y-56651050D01*
X43834230Y-56628871D01*
X43825965Y-56605772D01*
X43820004Y-56581973D01*
X43816404Y-56557705D01*
X43815200Y-56533201D01*
X43815200Y-55633199D01*
X43816404Y-55608695D01*
X43820004Y-55584427D01*
X43825965Y-55560628D01*
X43834230Y-55537529D01*
X43844720Y-55515350D01*
X43857332Y-55494307D01*
X43871947Y-55474601D01*
X43888423Y-55456423D01*
X43906601Y-55439947D01*
X43926307Y-55425332D01*
X43947350Y-55412720D01*
X43969529Y-55402230D01*
X43992628Y-55393965D01*
X44016427Y-55388004D01*
X44040695Y-55384404D01*
X44065199Y-55383200D01*
X44765201Y-55383200D01*
X44789705Y-55384404D01*
X44789705Y-55384404D01*
G37*
D11*
X44415200Y-56083200D03*
D10*
G36*
X46789705Y-55384404D02*
X46813973Y-55388004D01*
X46837772Y-55393965D01*
X46860871Y-55402230D01*
X46883050Y-55412720D01*
X46904093Y-55425332D01*
X46923799Y-55439947D01*
X46941977Y-55456423D01*
X46958453Y-55474601D01*
X46973068Y-55494307D01*
X46985680Y-55515350D01*
X46996170Y-55537529D01*
X47004435Y-55560628D01*
X47010396Y-55584427D01*
X47013996Y-55608695D01*
X47015200Y-55633199D01*
X47015200Y-56533201D01*
X47013996Y-56557705D01*
X47010396Y-56581973D01*
X47004435Y-56605772D01*
X46996170Y-56628871D01*
X46985680Y-56651050D01*
X46973068Y-56672093D01*
X46958453Y-56691799D01*
X46941977Y-56709977D01*
X46923799Y-56726453D01*
X46904093Y-56741068D01*
X46883050Y-56753680D01*
X46860871Y-56764170D01*
X46837772Y-56772435D01*
X46813973Y-56778396D01*
X46789705Y-56781996D01*
X46765201Y-56783200D01*
X46065199Y-56783200D01*
X46040695Y-56781996D01*
X46016427Y-56778396D01*
X45992628Y-56772435D01*
X45969529Y-56764170D01*
X45947350Y-56753680D01*
X45926307Y-56741068D01*
X45906601Y-56726453D01*
X45888423Y-56709977D01*
X45871947Y-56691799D01*
X45857332Y-56672093D01*
X45844720Y-56651050D01*
X45834230Y-56628871D01*
X45825965Y-56605772D01*
X45820004Y-56581973D01*
X45816404Y-56557705D01*
X45815200Y-56533201D01*
X45815200Y-55633199D01*
X45816404Y-55608695D01*
X45820004Y-55584427D01*
X45825965Y-55560628D01*
X45834230Y-55537529D01*
X45844720Y-55515350D01*
X45857332Y-55494307D01*
X45871947Y-55474601D01*
X45888423Y-55456423D01*
X45906601Y-55439947D01*
X45926307Y-55425332D01*
X45947350Y-55412720D01*
X45969529Y-55402230D01*
X45992628Y-55393965D01*
X46016427Y-55388004D01*
X46040695Y-55384404D01*
X46065199Y-55383200D01*
X46765201Y-55383200D01*
X46789705Y-55384404D01*
X46789705Y-55384404D01*
G37*
D11*
X46415200Y-56083200D03*
G04 #@! TD*
D10*
G04 #@! TO.C,R3*
G36*
X53171705Y-58711804D02*
X53195973Y-58715404D01*
X53219772Y-58721365D01*
X53242871Y-58729630D01*
X53265050Y-58740120D01*
X53286093Y-58752732D01*
X53305799Y-58767347D01*
X53323977Y-58783823D01*
X53340453Y-58802001D01*
X53355068Y-58821707D01*
X53367680Y-58842750D01*
X53378170Y-58864929D01*
X53386435Y-58888028D01*
X53392396Y-58911827D01*
X53395996Y-58936095D01*
X53397200Y-58960599D01*
X53397200Y-59860601D01*
X53395996Y-59885105D01*
X53392396Y-59909373D01*
X53386435Y-59933172D01*
X53378170Y-59956271D01*
X53367680Y-59978450D01*
X53355068Y-59999493D01*
X53340453Y-60019199D01*
X53323977Y-60037377D01*
X53305799Y-60053853D01*
X53286093Y-60068468D01*
X53265050Y-60081080D01*
X53242871Y-60091570D01*
X53219772Y-60099835D01*
X53195973Y-60105796D01*
X53171705Y-60109396D01*
X53147201Y-60110600D01*
X52447199Y-60110600D01*
X52422695Y-60109396D01*
X52398427Y-60105796D01*
X52374628Y-60099835D01*
X52351529Y-60091570D01*
X52329350Y-60081080D01*
X52308307Y-60068468D01*
X52288601Y-60053853D01*
X52270423Y-60037377D01*
X52253947Y-60019199D01*
X52239332Y-59999493D01*
X52226720Y-59978450D01*
X52216230Y-59956271D01*
X52207965Y-59933172D01*
X52202004Y-59909373D01*
X52198404Y-59885105D01*
X52197200Y-59860601D01*
X52197200Y-58960599D01*
X52198404Y-58936095D01*
X52202004Y-58911827D01*
X52207965Y-58888028D01*
X52216230Y-58864929D01*
X52226720Y-58842750D01*
X52239332Y-58821707D01*
X52253947Y-58802001D01*
X52270423Y-58783823D01*
X52288601Y-58767347D01*
X52308307Y-58752732D01*
X52329350Y-58740120D01*
X52351529Y-58729630D01*
X52374628Y-58721365D01*
X52398427Y-58715404D01*
X52422695Y-58711804D01*
X52447199Y-58710600D01*
X53147201Y-58710600D01*
X53171705Y-58711804D01*
X53171705Y-58711804D01*
G37*
D11*
X52797200Y-59410600D03*
D10*
G36*
X55171705Y-58711804D02*
X55195973Y-58715404D01*
X55219772Y-58721365D01*
X55242871Y-58729630D01*
X55265050Y-58740120D01*
X55286093Y-58752732D01*
X55305799Y-58767347D01*
X55323977Y-58783823D01*
X55340453Y-58802001D01*
X55355068Y-58821707D01*
X55367680Y-58842750D01*
X55378170Y-58864929D01*
X55386435Y-58888028D01*
X55392396Y-58911827D01*
X55395996Y-58936095D01*
X55397200Y-58960599D01*
X55397200Y-59860601D01*
X55395996Y-59885105D01*
X55392396Y-59909373D01*
X55386435Y-59933172D01*
X55378170Y-59956271D01*
X55367680Y-59978450D01*
X55355068Y-59999493D01*
X55340453Y-60019199D01*
X55323977Y-60037377D01*
X55305799Y-60053853D01*
X55286093Y-60068468D01*
X55265050Y-60081080D01*
X55242871Y-60091570D01*
X55219772Y-60099835D01*
X55195973Y-60105796D01*
X55171705Y-60109396D01*
X55147201Y-60110600D01*
X54447199Y-60110600D01*
X54422695Y-60109396D01*
X54398427Y-60105796D01*
X54374628Y-60099835D01*
X54351529Y-60091570D01*
X54329350Y-60081080D01*
X54308307Y-60068468D01*
X54288601Y-60053853D01*
X54270423Y-60037377D01*
X54253947Y-60019199D01*
X54239332Y-59999493D01*
X54226720Y-59978450D01*
X54216230Y-59956271D01*
X54207965Y-59933172D01*
X54202004Y-59909373D01*
X54198404Y-59885105D01*
X54197200Y-59860601D01*
X54197200Y-58960599D01*
X54198404Y-58936095D01*
X54202004Y-58911827D01*
X54207965Y-58888028D01*
X54216230Y-58864929D01*
X54226720Y-58842750D01*
X54239332Y-58821707D01*
X54253947Y-58802001D01*
X54270423Y-58783823D01*
X54288601Y-58767347D01*
X54308307Y-58752732D01*
X54329350Y-58740120D01*
X54351529Y-58729630D01*
X54374628Y-58721365D01*
X54398427Y-58715404D01*
X54422695Y-58711804D01*
X54447199Y-58710600D01*
X55147201Y-58710600D01*
X55171705Y-58711804D01*
X55171705Y-58711804D01*
G37*
D11*
X54797200Y-59410600D03*
G04 #@! TD*
D10*
G04 #@! TO.C,R4*
G36*
X55146305Y-55486004D02*
X55170573Y-55489604D01*
X55194372Y-55495565D01*
X55217471Y-55503830D01*
X55239650Y-55514320D01*
X55260693Y-55526932D01*
X55280399Y-55541547D01*
X55298577Y-55558023D01*
X55315053Y-55576201D01*
X55329668Y-55595907D01*
X55342280Y-55616950D01*
X55352770Y-55639129D01*
X55361035Y-55662228D01*
X55366996Y-55686027D01*
X55370596Y-55710295D01*
X55371800Y-55734799D01*
X55371800Y-56634801D01*
X55370596Y-56659305D01*
X55366996Y-56683573D01*
X55361035Y-56707372D01*
X55352770Y-56730471D01*
X55342280Y-56752650D01*
X55329668Y-56773693D01*
X55315053Y-56793399D01*
X55298577Y-56811577D01*
X55280399Y-56828053D01*
X55260693Y-56842668D01*
X55239650Y-56855280D01*
X55217471Y-56865770D01*
X55194372Y-56874035D01*
X55170573Y-56879996D01*
X55146305Y-56883596D01*
X55121801Y-56884800D01*
X54421799Y-56884800D01*
X54397295Y-56883596D01*
X54373027Y-56879996D01*
X54349228Y-56874035D01*
X54326129Y-56865770D01*
X54303950Y-56855280D01*
X54282907Y-56842668D01*
X54263201Y-56828053D01*
X54245023Y-56811577D01*
X54228547Y-56793399D01*
X54213932Y-56773693D01*
X54201320Y-56752650D01*
X54190830Y-56730471D01*
X54182565Y-56707372D01*
X54176604Y-56683573D01*
X54173004Y-56659305D01*
X54171800Y-56634801D01*
X54171800Y-55734799D01*
X54173004Y-55710295D01*
X54176604Y-55686027D01*
X54182565Y-55662228D01*
X54190830Y-55639129D01*
X54201320Y-55616950D01*
X54213932Y-55595907D01*
X54228547Y-55576201D01*
X54245023Y-55558023D01*
X54263201Y-55541547D01*
X54282907Y-55526932D01*
X54303950Y-55514320D01*
X54326129Y-55503830D01*
X54349228Y-55495565D01*
X54373027Y-55489604D01*
X54397295Y-55486004D01*
X54421799Y-55484800D01*
X55121801Y-55484800D01*
X55146305Y-55486004D01*
X55146305Y-55486004D01*
G37*
D11*
X54771800Y-56184800D03*
D10*
G36*
X53146305Y-55486004D02*
X53170573Y-55489604D01*
X53194372Y-55495565D01*
X53217471Y-55503830D01*
X53239650Y-55514320D01*
X53260693Y-55526932D01*
X53280399Y-55541547D01*
X53298577Y-55558023D01*
X53315053Y-55576201D01*
X53329668Y-55595907D01*
X53342280Y-55616950D01*
X53352770Y-55639129D01*
X53361035Y-55662228D01*
X53366996Y-55686027D01*
X53370596Y-55710295D01*
X53371800Y-55734799D01*
X53371800Y-56634801D01*
X53370596Y-56659305D01*
X53366996Y-56683573D01*
X53361035Y-56707372D01*
X53352770Y-56730471D01*
X53342280Y-56752650D01*
X53329668Y-56773693D01*
X53315053Y-56793399D01*
X53298577Y-56811577D01*
X53280399Y-56828053D01*
X53260693Y-56842668D01*
X53239650Y-56855280D01*
X53217471Y-56865770D01*
X53194372Y-56874035D01*
X53170573Y-56879996D01*
X53146305Y-56883596D01*
X53121801Y-56884800D01*
X52421799Y-56884800D01*
X52397295Y-56883596D01*
X52373027Y-56879996D01*
X52349228Y-56874035D01*
X52326129Y-56865770D01*
X52303950Y-56855280D01*
X52282907Y-56842668D01*
X52263201Y-56828053D01*
X52245023Y-56811577D01*
X52228547Y-56793399D01*
X52213932Y-56773693D01*
X52201320Y-56752650D01*
X52190830Y-56730471D01*
X52182565Y-56707372D01*
X52176604Y-56683573D01*
X52173004Y-56659305D01*
X52171800Y-56634801D01*
X52171800Y-55734799D01*
X52173004Y-55710295D01*
X52176604Y-55686027D01*
X52182565Y-55662228D01*
X52190830Y-55639129D01*
X52201320Y-55616950D01*
X52213932Y-55595907D01*
X52228547Y-55576201D01*
X52245023Y-55558023D01*
X52263201Y-55541547D01*
X52282907Y-55526932D01*
X52303950Y-55514320D01*
X52326129Y-55503830D01*
X52349228Y-55495565D01*
X52373027Y-55489604D01*
X52397295Y-55486004D01*
X52421799Y-55484800D01*
X53121801Y-55484800D01*
X53146305Y-55486004D01*
X53146305Y-55486004D01*
G37*
D11*
X52771800Y-56184800D03*
G04 #@! TD*
M02*
